Amstelvar-Roman-GRAD-1.ufo
<glyph name="exclam" format="2">
	<unicode hex="0021"/>
	<advance width="604"/>
	<outline>
		<contour>
			<point x="207" y="82" type="qcurve" smooth="yes"/>
			<point x="207" y="121"/>
			<point x="260" y="178"/>
			<point x="302" y="178" type="qcurve" smooth="yes"/>
			<point x="344" y="178"/>
			<point x="397" y="121"/>
			<point x="397" y="82" type="qcurve" smooth="yes"/>
			<point x="397" y="45"/>
			<point x="344" y="-12"/>
			<point x="302" y="-12" type="qcurve" smooth="yes"/>
			<point x="260" y="-12"/>
			<point x="207" y="45"/>
		</contour>
		<contour>
			<point x="248" y="1421" type="line" smooth="yes"/>
			<point x="246" y="1489"/>
			<point x="263" y="1576"/>
			<point x="298" y="1577" type="qcurve" smooth="yes"/>
			<point x="334" y="1578"/>
			<point x="351" y="1491"/>
			<point x="350" y="1422" type="qcurve" smooth="yes"/>
			<point x="343" y="1108" type="line"/>
			<point x="337" y="800" type="line"/>
			<point x="329" y="435" type="line"/>
			<point x="268" y="435" type="line"/>
			<point x="260" y="800" type="line"/>
			<point x="256" y="1108" type="line"/>
		</contour>
	</outline>
</glyph>
<glyph name="parenright" format="2">
	<unicode hex="0029"/>
	<advance width="598"/>
	<outline>
		<contour>
			<point x="490" y="672" type="qcurve" smooth="yes"/>
			<point x="490" y="411"/>
			<point x="247" y="-66"/>
			<point x="89" y="-182" type="qcurve"/>
			<point x="40" y="-140" type="line"/>
			<point x="174" y="-21"/>
			<point x="395" y="436"/>
			<point x="395" y="672" type="qcurve" smooth="yes"/>
			<point x="395" y="908"/>
			<point x="186" y="1348"/>
			<point x="40" y="1484" type="qcurve"/>
			<point x="89" y="1526" type="line"/>
			<point x="247" y="1410"/>
			<point x="490" y="923"/>
		</contour>
	</outline>
</glyph>
<glyph name="six" format="2">
	<unicode hex="0036"/>
	<advance width="1176"/>
	<outline>
		<contour>
			<point x="110" y="604" type="qcurve" smooth="yes"/>
			<point x="110" y="948"/>
			<point x="536" y="1456"/>
			<point x="885" y="1579" type="qcurve"/>
			<point x="897" y="1527" type="line"/>
			<point x="604" y="1420"/>
			<point x="201" y="984"/>
			<point x="201" y="611" type="qcurve" smooth="yes"/>
			<point x="201" y="389"/>
			<point x="439" y="41"/>
			<point x="638" y="41" type="qcurve" smooth="yes"/>
			<point x="786" y="41"/>
			<point x="1002" y="290"/>
			<point x="1002" y="479" type="qcurve" smooth="yes"/>
			<point x="1002" y="675"/>
			<point x="806" y="859"/>
			<point x="674" y="859" type="qcurve" smooth="yes"/>
			<point x="573" y="859"/>
			<point x="435" y="784"/>
			<point x="396" y="750" type="qcurve"/>
			<point x="365" y="795" type="line"/>
			<point x="410" y="844"/>
			<point x="584" y="936"/>
			<point x="705" y="936" type="qcurve" smooth="yes"/>
			<point x="875" y="936"/>
			<point x="1098" y="686"/>
			<point x="1098" y="519" type="qcurve" smooth="yes"/>
			<point x="1098" y="258"/>
			<point x="810" y="-22"/>
			<point x="640" y="-22" type="qcurve" smooth="yes"/>
			<point x="412" y="-22"/>
			<point x="110" y="337"/>
		</contour>
	</outline>
</glyph>
<glyph name="semicolon" format="2">
	<unicode hex="003B"/>
	<advance width="664"/>
	<outline>
		<contour>
			<point x="189" y="-226" type="line"/>
			<point x="236" y="-200"/>
			<point x="363" y="-80"/>
			<point x="377" y="-7" type="qcurve"/>
			<point x="303" y="-10"/>
			<point x="226" y="56"/>
			<point x="226" y="99" type="qcurve" smooth="yes"/>
			<point x="226" y="143"/>
			<point x="276" y="205"/>
			<point x="329" y="205" type="qcurve" smooth="yes"/>
			<point x="389" y="205"/>
			<point x="444" y="125"/>
			<point x="444" y="58" type="qcurve" smooth="yes"/>
			<point x="444" y="-54"/>
			<point x="312" y="-207"/>
			<point x="223" y="-265" type="qcurve"/>
		</contour>
		<contour>
			<point x="227" y="920" type="qcurve" smooth="yes"/>
			<point x="227" y="963"/>
			<point x="286" y="1026"/>
			<point x="332" y="1026" type="qcurve" smooth="yes"/>
			<point x="378" y="1026"/>
			<point x="437" y="963"/>
			<point x="437" y="920" type="qcurve" smooth="yes"/>
			<point x="437" y="879"/>
			<point x="378" y="816"/>
			<point x="332" y="816" type="qcurve" smooth="yes"/>
			<point x="286" y="816"/>
			<point x="227" y="879"/>
		</contour>
	</outline>
</glyph>
<glyph name="greater" format="2">
	<unicode hex="003E"/>
	<advance width="1024"/>
	<outline>
		<contour>
			<point x="195" y="219" type="qcurve" smooth="yes"/>
			<point x="257" y="284"/>
			<point x="696" y="647"/>
			<point x="700" y="647" type="qcurve"/>
			<point x="696" y="647"/>
			<point x="283" y="966"/>
			<point x="223" y="1035" type="qcurve" smooth="yes"/>
			<point x="196" y="1065"/>
			<point x="237" y="1110"/>
			<point x="266" y="1082" type="qcurve" smooth="yes"/>
			<point x="298" y="1054"/>
			<point x="825" y="654"/>
			<point x="827" y="650" type="qcurve"/>
			<point x="824" y="646"/>
			<point x="271" y="203"/>
			<point x="240" y="178" type="qcurve" smooth="yes"/>
			<point x="210" y="154"/>
			<point x="169" y="193"/>
		</contour>
	</outline>
</glyph>
<glyph name="bracketleft" format="2">
	<unicode hex="005B"/>
	<advance width="636"/>
	<outline>
		<contour>
			<point x="215" y="508" type="line"/>
			<point x="203" y="1417" type="line"/>
			<point x="184" y="1437" type="line"/>
			<point x="184" y="1500" type="line"/>
			<point x="552" y="1500" type="line"/>
			<point x="552" y="1436" type="line"/>
			<point x="290" y="1417" type="line"/>
			<point x="281" y="508" type="line"/>
			<point x="290" y="-397" type="line"/>
			<point x="552" y="-416" type="line"/>
			<point x="552" y="-480" type="line"/>
			<point x="184" y="-480" type="line"/>
			<point x="184" y="-417" type="line"/>
			<point x="203" y="-397" type="line"/>
		</contour>
	</outline>
</glyph>
<glyph name="dieresis" format="2">
	<unicode hex="00A8"/>
	<advance width="1024"/>
	<outline>
		<contour>
			<point x="656" y="1287" type="qcurve" smooth="yes"/>
			<point x="656" y="1328"/>
			<point x="701" y="1373"/>
			<point x="742" y="1373" type="qcurve" smooth="yes"/>
			<point x="781" y="1373"/>
			<point x="828" y="1325"/>
			<point x="828" y="1287" type="qcurve" smooth="yes"/>
			<point x="828" y="1247"/>
			<point x="784" y="1203"/>
			<point x="742" y="1203" type="qcurve" smooth="yes"/>
			<point x="703" y="1203"/>
			<point x="656" y="1249"/>
		</contour>
		<contour>
			<point x="196" y="1287" type="qcurve" smooth="yes"/>
			<point x="196" y="1328"/>
			<point x="241" y="1371"/>
			<point x="282" y="1371" type="qcurve" smooth="yes"/>
			<point x="321" y="1371"/>
			<point x="368" y="1325"/>
			<point x="368" y="1287" type="qcurve" smooth="yes"/>
			<point x="368" y="1247"/>
			<point x="324" y="1204"/>
			<point x="282" y="1204" type="qcurve" smooth="yes"/>
			<point x="243" y="1204"/>
			<point x="196" y="1250"/>
		</contour>
	</outline>
</glyph>
<glyph name="logicalnot" format="2">
	<unicode hex="00AC"/>
	<advance width="1024"/>
	<outline>
		<contour>
			<point x="65" y="667" type="line"/>
			<point x="899" y="667" type="line"/>
			<point x="899" y="200" type="line"/>
			<point x="821" y="200" type="line"/>
			<point x="821" y="596" type="line"/>
			<point x="65" y="596" type="line"/>
		</contour>
	</outline>
</glyph>
<glyph name="macron" format="2">
	<unicode hex="00AF"/>
	<advance width="1024"/>
	<outline>
		<contour>
			<point x="232" y="1248" type="line"/>
			<point x="232" y="1323" type="line"/>
			<point x="824" y="1323" type="line"/>
			<point x="824" y="1248" type="line"/>
		</contour>
	</outline>
</glyph>
<glyph name="micro" format="2">
	<unicode hex="00B5"/>
	<advance width="1198"/>
	<outline>
		<contour>
			<point x="3" y="-357" type="line"/>
			<point x="39" y="-335" type="line"/>
			<point x="78" y="-177"/>
			<point x="141" y="112"/>
			<point x="153" y="181" type="qcurve" smooth="yes"/>
			<point x="277" y="903" type="line"/>
			<point x="107" y="878" type="line"/>
			<point x="105" y="925" type="line"/>
			<point x="304" y="1002" type="line"/>
			<point x="329" y="1002" type="line"/>
			<point x="356" y="963" type="line"/>
			<point x="228" y="263" type="line" smooth="yes"/>
			<point x="213" y="181"/>
			<point x="302" y="90"/>
			<point x="395" y="90" type="qcurve" smooth="yes"/>
			<point x="500" y="90"/>
			<point x="750" y="218"/>
			<point x="811" y="285" type="qcurve"/>
			<point x="946" y="976" type="line"/>
			<point x="932" y="1009" type="line"/>
			<point x="989" y="1023" type="line"/>
			<point x="1020" y="982" type="line"/>
			<point x="891" y="362" type="line"/>
			<point x="864" y="83" type="line"/>
			<point x="1050" y="93" type="line"/>
			<point x="1053" y="47" type="line"/>
			<point x="836" y="-9" type="line"/>
			<point x="797" y="76" type="line"/>
			<point x="805" y="215" type="line"/>
			<point x="728" y="136"/>
			<point x="497" y="23"/>
			<point x="375" y="23" type="qcurve" smooth="yes"/>
			<point x="325" y="23"/>
			<point x="224" y="66"/>
			<point x="195" y="101" type="qcurve"/>
			<point x="121" y="-314" type="line"/>
			<point x="267" y="-322" type="line"/>
			<point x="261" y="-371" type="line"/>
			<point x="28" y="-399" type="line"/>
		</contour>
	</outline>
</glyph>
<glyph name="ordmasculine" format="2">
	<unicode hex="00BA"/>
	<advance width="1054"/>
	<outline>
		<contour>
			<point x="100" y="1091" type="qcurve" smooth="yes"/>
			<point x="100" y="1274"/>
			<point x="317" y="1542"/>
			<point x="525" y="1542" type="qcurve" smooth="yes"/>
			<point x="734" y="1542"/>
			<point x="957" y="1268"/>
			<point x="957" y="1099" type="qcurve" smooth="yes"/>
			<point x="957" y="930"/>
			<point x="739" y="646"/>
			<point x="530" y="646" type="qcurve" smooth="yes"/>
			<point x="321" y="646"/>
			<point x="100" y="908"/>
		</contour>
		<contour>
			<point x="195" y="1108" type="qcurve" smooth="yes"/>
			<point x="195" y="927"/>
			<point x="370" y="712"/>
			<point x="523" y="712" type="qcurve" smooth="yes"/>
			<point x="676" y="712"/>
			<point x="856" y="904"/>
			<point x="856" y="1098" type="qcurve" smooth="yes"/>
			<point x="856" y="1292"/>
			<point x="681" y="1470"/>
			<point x="525" y="1470" type="qcurve" smooth="yes"/>
			<point x="369" y="1470"/>
			<point x="195" y="1289"/>
		</contour>
	</outline>
</glyph>
<glyph name="germandbls" format="2">
	<unicode hex="00DF"/>
	<advance width="1332"/>
	<outline>
		<contour>
			<point x="1049" y="1235" type="qcurve" smooth="yes"/>
			<point x="1049" y="1118"/>
			<point x="916" y="986"/>
			<point x="838" y="944" type="qcurve" smooth="yes"/>
			<point x="782" y="914"/>
			<point x="684" y="830"/>
			<point x="684" y="771" type="qcurve" smooth="yes"/>
			<point x="684" y="721"/>
			<point x="781" y="636"/>
			<point x="921" y="581" type="qcurve" smooth="yes"/>
			<point x="1072" y="522"/>
			<point x="1255" y="395"/>
			<point x="1255" y="277" type="qcurve" smooth="yes"/>
			<point x="1255" y="150"/>
			<point x="1090" y="-23"/>
			<point x="949" y="-23" type="qcurve" smooth="yes"/>
			<point x="826" y="-23"/>
			<point x="653" y="61"/>
			<point x="602" y="113" type="qcurve"/>
			<point x="553" y="0" type="line"/>
			<point x="522" y="0" type="line"/>
			<point x="522" y="339" type="line"/>
			<point x="567" y="339" type="line"/>
			<point x="578" y="280" type="line" smooth="yes"/>
			<point x="597" y="179"/>
			<point x="797" y="38"/>
			<point x="925" y="38" type="qcurve" smooth="yes"/>
			<point x="1046" y="38"/>
			<point x="1190" y="164"/>
			<point x="1190" y="260" type="qcurve" smooth="yes"/>
			<point x="1190" y="371"/>
			<point x="1029" y="474"/>
			<point x="899" y="523" type="qcurve" smooth="yes"/>
			<point x="725" y="589"/>
			<point x="623" y="697"/>
			<point x="623" y="770" type="qcurve" smooth="yes"/>
			<point x="623" y="839"/>
			<point x="715" y="939"/>
			<point x="801" y="988" type="qcurve" smooth="yes"/>
			<point x="877" y="1031"/>
			<point x="987" y="1138"/>
			<point x="987" y="1244" type="qcurve" smooth="yes"/>
			<point x="987" y="1347"/>
			<point x="819" y="1465"/>
			<point x="681" y="1465" type="qcurve" smooth="yes"/>
			<point x="511" y="1465"/>
			<point x="301" y="1244"/>
			<point x="303" y="1069" type="qcurve"/>
			<point x="307" y="527" type="line"/>
			<point x="320" y="45" type="line"/>
			<point x="291" y="0" type="line"/>
			<point x="54" y="0" type="line"/>
			<point x="54" y="40" type="line"/>
			<point x="242" y="75" type="line"/>
			<point x="244" y="527" type="line"/>
			<point x="247" y="1104" type="line" smooth="yes"/>
			<point x="248" y="1287"/>
			<point x="496" y="1518"/>
			<point x="690" y="1518" type="qcurve" smooth="yes"/>
			<point x="870" y="1518"/>
			<point x="1049" y="1355"/>
		</contour>
	</outline>
</glyph>
<glyph name="caron" format="2">
	<unicode hex="02C7"/>
	<advance width="1024"/>
	<outline>
		<contour>
			<point x="512" y="1142" type="qcurve" smooth="yes"/>
			<point x="483" y="1142"/>
			<point x="434" y="1204"/>
			<point x="402" y="1245" type="qcurve" smooth="yes"/>
			<point x="219" y="1478" type="line"/>
			<point x="262" y="1517" type="line"/>
			<point x="512" y="1241" type="line"/>
			<point x="762" y="1517" type="line"/>
			<point x="805" y="1478" type="line"/>
			<point x="622" y="1245" type="line" smooth="yes"/>
			<point x="583" y="1195"/>
			<point x="541" y="1142"/>
		</contour>
	</outline>
</glyph>
<glyph name="breve" format="2">
	<unicode hex="02D8"/>
	<advance width="1024"/>
	<outline>
		<contour>
			<point x="817" y="1470" type="qcurve"/>
			<point x="868" y="1435" type="line"/>
			<point x="852" y="1348"/>
			<point x="642" y="1171"/>
			<point x="513" y="1171" type="qcurve" smooth="yes"/>
			<point x="384" y="1171"/>
			<point x="180" y="1325"/>
			<point x="158" y="1435" type="qcurve"/>
			<point x="205" y="1468" type="line"/>
			<point x="229" y="1404"/>
			<point x="382" y="1259"/>
			<point x="514" y="1257" type="qcurve" smooth="yes"/>
			<point x="646" y="1255"/>
			<point x="794" y="1405"/>
		</contour>
	</outline>
</glyph>
<glyph name="ring" format="2">
	<unicode hex="02DA"/>
	<advance width="1024"/>
	<outline>
		<contour>
			<point x="290" y="1347" type="qcurve" smooth="yes"/>
			<point x="290" y="1438"/>
			<point x="417" y="1562"/>
			<point x="512" y="1562" type="qcurve" smooth="yes"/>
			<point x="607" y="1562"/>
			<point x="734" y="1438"/>
			<point x="734" y="1347" type="qcurve" smooth="yes"/>
			<point x="734" y="1256"/>
			<point x="607" y="1132"/>
			<point x="512" y="1132" type="qcurve" smooth="yes"/>
			<point x="417" y="1132"/>
			<point x="290" y="1256"/>
		</contour>
		<contour>
			<point x="366" y="1347" type="qcurve" smooth="yes"/>
			<point x="366" y="1284"/>
			<point x="447" y="1201"/>
			<point x="512" y="1201" type="qcurve" smooth="yes"/>
			<point x="581" y="1201"/>
			<point x="658" y="1278"/>
			<point x="658" y="1347" type="qcurve" smooth="yes"/>
			<point x="658" y="1410"/>
			<point x="577" y="1493"/>
			<point x="512" y="1493" type="qcurve" smooth="yes"/>
			<point x="443" y="1493"/>
			<point x="366" y="1416"/>
		</contour>
	</outline>
</glyph>
<glyph name="dotbelowcomb" format="2">
	<unicode hex="0323"/>
	<advance width="1024"/>
	<outline>
		<contour>
			<point x="436" y="-279" type="qcurve" smooth="yes"/>
			<point x="436" y="-243"/>
			<point x="474" y="-204"/>
			<point x="512" y="-204" type="qcurve" smooth="yes"/>
			<point x="547" y="-204"/>
			<point x="588" y="-247"/>
			<point x="588" y="-279" type="qcurve" smooth="yes"/>
			<point x="588" y="-316"/>
			<point x="550" y="-355"/>
			<point x="512" y="-355" type="qcurve" smooth="yes"/>
			<point x="477" y="-355"/>
			<point x="436" y="-312"/>
		</contour>
	</outline>
</glyph>
<glyph name="numeralsign" format="2">
  <advance width="349"/>
  <unicode hex="0374"/>
  <outline>
    <contour>
      <point x="137" y="939" type="line"/>
      <point x="75" y="957" type="line"/>
      <point x="172" y="1500" type="line"/>
      <point x="256" y="1493" type="line"/>
      <point x="295" y="1465" type="line"/>
    </contour>
  </outline>
</glyph>
<glyph name="tonos" format="2">
	<unicode hex="0384"/>
	<advance width="879"/>
	<outline>
		<contour>
			<point x="408" y="1161" type="line"/>
			<point x="354" y="1180" type="line"/>
			<point x="463" y="1622" type="line"/>
			<point x="547" y="1615" type="line"/>
			<point x="586" y="1587" type="line"/>
		</contour>
	</outline>
</glyph>
<glyph name="delta" format="2">
	<unicode hex="03B4"/>
	<advance width="1169"/>
	<outline>
		<contour>
			<point x="585" y="-22" type="qcurve" smooth="yes"/>
			<point x="345" y="-22"/>
			<point x="75" y="223"/>
			<point x="75" y="436" type="qcurve"/>
			<point x="75" y="645"/>
			<point x="343" y="914"/>
			<point x="599" y="956" type="qcurve"/>
			<point x="655" y="932" type="line"/>
			<point x="655" y="920" type="line"/>
			<point x="364" y="870"/>
			<point x="148" y="621"/>
			<point x="148" y="434" type="qcurve"/>
			<point name="inserted" x="148" y="242"/>
			<point x="381" y="37"/>
			<point x="584" y="37" type="qcurve" smooth="yes"/>
			<point x="774" y="37"/>
			<point x="1021" y="272"/>
			<point x="1021" y="449" type="qcurve"/>
			<point name="inserted" x="1021" y="584"/>
			<point x="862" y="811"/>
			<point x="594" y="924" type="qcurve" smooth="yes"/>
			<point x="426" y="994"/>
			<point x="238" y="1140"/>
			<point x="238" y="1252" type="qcurve"/>
			<point x="238" y="1379"/>
			<point x="467" y="1534"/>
			<point x="671" y="1534" type="qcurve" smooth="yes"/>
			<point x="785" y="1534"/>
			<point x="1004" y="1476"/>
			<point x="1053" y="1431" type="qcurve"/>
			<point x="1056" y="1190" type="line"/>
			<point x="1013" y="1191" type="line"/>
			<point x="961" y="1395" type="line"/>
			<point x="934" y="1422"/>
			<point x="781" y="1476"/>
			<point x="673" y="1476" type="qcurve" smooth="yes"/>
			<point name="inserted" x="499" y="1476"/>
			<point x="302" y="1364"/>
			<point x="302" y="1254" type="qcurve"/>
			<point x="302" y="1186"/>
			<point x="414" y="1072"/>
			<point x="678" y="951" type="qcurve" smooth="yes"/>
			<point x="920" y="840"/>
			<point x="1094" y="594"/>
			<point x="1094" y="452" type="qcurve" smooth="yes"/>
			<point x="1094" y="259"/>
			<point x="812" y="-22"/>
		</contour>
	</outline>
</glyph>
<glyph name="lambda" format="2">
	<unicode hex="03BB"/>
	<advance width="914"/>
	<outline>
		<contour>
			<point x="806" y="-8" type="line"/>
			<point x="751" y="-7"/>
			<point x="698" y="32"/>
			<point x="676" y="91" type="qcurve" smooth="yes"/>
			<point x="359" y="962" type="line"/>
			<point x="208" y="1362" type="line" smooth="yes"/>
			<point x="194" y="1400"/>
			<point x="153" y="1439"/>
			<point x="102" y="1446" type="qcurve" smooth="yes"/>
			<point x="-35" y="1466" type="line"/>
			<point x="-35" y="1499" type="line"/>
			<point x="136" y="1534" type="line"/>
			<point x="184" y="1534"/>
			<point x="241" y="1476"/>
			<point x="270" y="1395" type="qcurve" smooth="yes"/>
			<point x="402" y="1025" type="line"/>
			<point x="719" y="168" type="line" smooth="yes"/>
			<point x="744" y="99"/>
			<point x="817" y="60"/>
			<point x="886" y="60" type="qcurve" smooth="yes"/>
			<point x="944" y="60" type="line"/>
			<point x="944" y="19" type="line"/>
		</contour>
		<contour>
			<point x="-19" y="0" type="line"/>
			<point x="-40" y="15" type="line"/>
			<point x="198" y="609" type="line"/>
			<point x="363" y="1032" type="line"/>
			<point x="389" y="966" type="line"/>
			<point x="249" y="589" type="line"/>
			<point x="40" y="12" type="line"/>
		</contour>
	</outline>
</glyph>
<glyph name="pi" format="2">
	<unicode hex="03C0"/>
	<advance width="1242"/>
	<outline>
		<contour>
			<point x="1149" y="921" type="line"/>
			<point x="46" y="923" type="line"/>
			<point x="46" y="957" type="line"/>
			<point x="181" y="987" type="line"/>
			<point x="1127" y="1000" type="line"/>
			<point x="1159" y="977" type="line"/>
		</contour>
		<contour>
			<point x="242" y="0" type="line"/>
			<point x="221" y="15" type="line"/>
			<point x="267" y="522" type="line"/>
			<point x="306" y="952" type="line"/>
			<point x="355" y="952" type="line"/>
			<point x="330" y="521" type="line"/>
			<point x="301" y="12" type="line"/>
		</contour>
		<contour>
			<point x="992" y="-8" type="line"/>
			<point name="inserted" x="918" y="-5"/>
			<point x="852" y="49"/>
			<point x="855" y="147" type="qcurve" smooth="yes"/>
			<point x="881" y="952" type="line"/>
			<point x="927" y="952" type="line"/>
			<point x="928" y="192" type="line" smooth="yes"/>
			<point x="928" y="107"/>
			<point x="986" y="60"/>
			<point x="1051" y="60" type="qcurve" smooth="yes"/>
			<point x="1149" y="60" type="line"/>
			<point x="1149" y="19" type="line"/>
		</contour>
	</outline>
</glyph>
<glyph name="sigma" format="2">
	<unicode hex="03C3"/>
	<advance width="1228"/>
	<outline>
		<contour>
			<point x="547" y="-21" type="qcurve" smooth="yes"/>
			<point x="329" y="-21"/>
			<point x="75" y="245"/>
			<point x="75" y="452" type="qcurve"/>
			<point x="75" y="698"/>
			<point x="370" y="961"/>
			<point x="673" y="977" type="qcurve" smooth="yes"/>
			<point x="1113" y="1000" type="line"/>
			<point x="1145" y="977" type="line"/>
			<point x="1135" y="921" type="line"/>
			<point x="765" y="921" type="line"/>
			<point x="426" y="921"/>
			<point x="146" y="682"/>
			<point x="146" y="452" type="qcurve"/>
			<point x="146" y="268"/>
			<point x="361" y="35"/>
			<point x="552" y="35" type="qcurve" smooth="yes"/>
			<point x="744" y="35"/>
			<point x="954" y="288"/>
			<point x="954" y="478" type="qcurve" smooth="yes"/>
			<point x="954" y="657"/>
			<point x="813" y="862"/>
			<point x="692" y="939" type="qcurve"/>
			<point x="692" y="958" type="line"/>
			<point x="738" y="958" type="line"/>
			<point x="878" y="886"/>
			<point x="1026" y="635"/>
			<point x="1026" y="479" type="qcurve" smooth="yes"/>
			<point x="1026" y="271"/>
			<point x="762" y="-21"/>
		</contour>
	</outline>
</glyph>
<glyph name="tau" format="2">
	<unicode hex="03C4"/>
	<advance width="902"/>
	<outline>
		<contour>
			<point x="809" y="921" type="line"/>
			<point x="46" y="923" type="line"/>
			<point x="46" y="957" type="line"/>
			<point x="181" y="987" type="line"/>
			<point x="787" y="1000" type="line"/>
			<point x="819" y="977" type="line"/>
		</contour>
		<contour>
			<point x="519" y="-8" type="line"/>
			<point name="inserted" x="445" y="-5"/>
			<point x="381" y="49"/>
			<point x="382" y="147" type="qcurve" smooth="yes"/>
			<point x="388" y="952" type="line"/>
			<point x="452" y="952" type="line"/>
			<point x="455" y="192" type="line" smooth="yes"/>
			<point x="455" y="107"/>
			<point x="513" y="55"/>
			<point x="578" y="60" type="qcurve" smooth="yes"/>
			<point x="702" y="70" type="line"/>
			<point x="702" y="29" type="line"/>
		</contour>
	</outline>
</glyph>
<glyph name="psi" format="2">
	<unicode hex="03C8"/>
	<advance width="1372"/>
	<outline>
		<contour>
			<point x="728" y="-21" type="line"/>
			<point x="474" y="-21"/>
			<point x="237" y="159"/>
			<point x="237" y="381" type="qcurve" smooth="yes"/>
			<point x="237" y="691" type="line"/>
			<point name="inserted" x="236" y="844"/>
			<point x="216" y="905"/>
			<point x="174" y="912" type="qcurve" smooth="yes"/>
			<point x="56" y="933" type="line"/>
			<point x="56" y="966" type="line"/>
			<point x="206" y="1001" type="line"/>
			<point x="269" y="999"/>
			<point x="308" y="927"/>
			<point x="308" y="821" type="qcurve" smooth="yes"/>
			<point x="308" y="382" type="line" smooth="yes"/>
			<point x="308" y="205"/>
			<point x="493" y="48"/>
			<point x="728" y="48" type="qcurve"/>
		</contour>
		<contour>
			<point x="757" y="-21" type="qcurve"/>
			<point x="757" y="48" type="line"/>
			<point x="993" y="48"/>
			<point x="1215" y="272"/>
			<point x="1215" y="496" type="qcurve"/>
			<point x="1215" y="640"/>
			<point x="1120" y="886"/>
			<point x="1033" y="968" type="qcurve"/>
			<point x="1087" y="1010" type="line"/>
			<point x="1193" y="903"/>
			<point x="1287" y="631"/>
			<point x="1287" y="499" type="qcurve"/>
			<point x="1287" y="235"/>
			<point x="1007" y="-21"/>
		</contour>
		<contour>
			<point x="722" y="-480" type="line"/>
			<point x="701" y="-465" type="line"/>
			<point x="705" y="3" type="line"/>
			<point x="706" y="3" type="line"/>
			<point x="714" y="1527" type="line"/>
			<point x="748" y="1534" type="line"/>
			<point x="769" y="1519" type="line"/>
			<point x="778" y="3" type="line"/>
			<point x="779" y="3" type="line"/>
			<point x="781" y="-468" type="line"/>
		</contour>
	</outline>
</glyph>
<glyph name="omega" format="2">
  <advance width="1468"/>
  <unicode hex="03C9"/>
  <anchor x="734.0" y="1000" name="GRKtop"/>
  <outline>
    <contour>
      <point x="438.0" y="-21" type="qcurve"/>
      <point x="271.0" y="-21"/>
      <point x="79.0" y="211"/>
      <point x="78.0" y="415" type="qcurve"/>
      <point x="78.0" y="625" name="inserted"/>
      <point x="236.0" y="930"/>
      <point x="371.0" y="1010" type="qcurve"/>
      <point x="415.0" y="977" type="line"/>
      <point x="288.0" y="895"/>
      <point x="149.0" y="619"/>
      <point x="149.0" y="415" type="qcurve"/>
      <point x="149.0" y="241"/>
      <point x="293.0" y="35"/>
      <point x="441.0" y="35" type="qcurve"/>
      <point x="591.0" y="35"/>
      <point x="737.0" y="307"/>
      <point x="722.0" y="584" type="qcurve"/>
      <point x="738.0" y="584" type="line"/>
      <point x="735.0" y="300"/>
      <point x="878.0" y="35"/>
      <point x="1029.0" y="35" type="qcurve"/>
      <point x="1176.0" y="35"/>
      <point x="1319.0" y="243"/>
      <point x="1319.0" y="404" type="qcurve"/>
      <point x="1319.0" y="601"/>
      <point x="1171.0" y="891"/>
      <point x="1044.0" y="970" type="qcurve"/>
      <point x="1097.0" y="1010" type="line"/>
      <point x="1230.0" y="932" name="inserted"/>
      <point x="1390.0" y="614"/>
      <point x="1390.0" y="427" type="qcurve"/>
      <point x="1390.0" y="207"/>
      <point x="1194.0" y="-21"/>
      <point x="1033.0" y="-21" type="qcurve" smooth="yes"/>
      <point x="874.0" y="-21"/>
      <point x="694.0" y="236"/>
      <point x="694.0" y="601" type="qcurve" smooth="yes"/>
      <point x="694.0" y="715" type="line"/>
      <point x="753.0" y="727" type="line"/>
      <point x="774.0" y="712" type="line"/>
      <point x="774.0" y="604" type="line" smooth="yes"/>
      <point x="774.0" y="236"/>
      <point x="593.0" y="-21"/>
    </contour>
  </outline>
</glyph>
<glyph name="Kaisymbol" format="2">
  <advance width="1440"/>
  <unicode hex="03CF"/>
  <outline>
    <contour>
      <point x="82" y="0" type="line"/>
      <point x="82" y="40" type="line"/>
      <point x="340" y="75" type="line"/>
      <point x="342" y="754" type="line"/>
      <point x="340" y="1412" type="line"/>
      <point x="82" y="1446" type="line"/>
      <point x="82" y="1500" type="line"/>
      <point x="668" y="1500" type="line"/>
      <point x="668" y="1446" type="line"/>
      <point x="420" y="1412" type="line"/>
      <point x="418" y="754" type="line"/>
      <point x="420" y="75" type="line"/>
      <point x="678" y="40" type="line"/>
      <point x="678" y="0" type="line"/>
    </contour>
    <contour>
      <point x="380" y="501" type="line"/>
      <point x="380" y="583" type="line"/>
      <point x="1129" y="1398" type="line"/>
      <point x="924" y="1446" type="line"/>
      <point x="924" y="1500" type="line"/>
      <point x="1410" y="1500" type="line"/>
      <point x="1410" y="1446" type="line"/>
      <point x="1232" y="1398" type="line"/>
      <point x="746" y="887" type="line"/>
      <point x="710" y="849" type="line"/>
    </contour>
    <contour>
      <point x="1255" y="0" type="line"/>
      <point x="651" y="832" type="line"/>
      <point x="704" y="888" type="line"/>
      <point x="1299" y="75" type="line"/>
      <point x="1496" y="40" type="line"/>
      <point x="1496" y="0" type="line"/>
    </contour>
    <contour>
      <point x="686" y="-499" type="qcurve"/>
      <point x="547" y="-499"/>
      <point x="259" y="-420"/>
      <point x="174" y="-352" type="qcurve"/>
      <point x="203" y="-305" type="line"/>
      <point x="292" y="-365"/>
      <point x="526" y="-439"/>
      <point x="684" y="-439" type="qcurve"/>
      <point x="977" y="-439"/>
      <point x="1357" y="-207"/>
      <point x="1437" y="0" type="qcurve"/>
      <point x="1496" y="0" type="line"/>
      <point x="1432" y="-205"/>
      <point x="1038" y="-499"/>
    </contour>
  </outline>
</glyph>
<glyph name="kaisymbol" format="2">
	<unicode hex="03D7"/>
	<advance width="1110"/>
	<outline>
		<contour>
			<point x="505" y="-499" type="qcurve"/>
			<point x="317" y="-499"/>
			<point x="47" y="-338"/>
			<point x="-33" y="-191" type="qcurve"/>
			<point x="3" y="-169" type="line"/>
			<point x="71" y="-289"/>
			<point x="310" y="-442"/>
			<point x="504" y="-442" type="qcurve"/>
			<point x="746" y="-442"/>
			<point x="1012" y="-160"/>
			<point x="1008" y="65" type="qcurve"/>
			<point x="1055" y="65" type="line"/>
			<point x="1064" y="-187"/>
			<point x="761" y="-499"/>
		</contour>
		<component base="kappa"/>
	</outline>
</glyph>
<glyph name="Be" format="2">
  <advance width="1288"/>
  <unicode hex="0411"/>
  <outline>
    <contour>
      <point x="1100" y="450" type="qcurve" smooth="yes"/>
      <point x="1100" y="609.2873563218"/>
      <point x="906.0765519533" y="788"/>
      <point x="752" y="788" type="qcurve" smooth="yes"/>
      <point x="429" y="788" type="line"/>
      <point x="420" y="774" type="line"/>
      <point x="420" y="75" type="line"/>
      <point x="453" y="55" type="line"/>
      <point x="705" y="55" type="line" smooth="yes"/>
      <point x="903" y="55"/>
      <point x="1100" y="277.3703703704"/>
    </contour>
    <contour>
      <point x="82" y="0" type="line"/>
      <point x="82" y="40" type="line"/>
      <point x="340" y="76" type="line"/>
      <point x="342" y="784" type="line"/>
      <point x="340" y="1412" type="line"/>
      <point x="82" y="1446" type="line"/>
      <point x="82" y="1500" type="line"/>
      <point x="1089" y="1500" type="line"/>
      <point x="1089" y="1142" type="line"/>
      <point x="1039" y="1142" type="line"/>
      <point x="1004" y="1442" type="line"/>
      <point x="451" y="1442" type="line"/>
      <point x="421" y="1422" type="line"/>
      <point x="419" y="866" type="line"/>
      <point x="428" y="852" type="line"/>
      <point x="704" y="852" type="line" smooth="yes"/>
      <point x="939" y="852"/>
      <point x="1190" y="628.4653937947"/>
      <point x="1190" y="443" type="qcurve" smooth="yes"/>
      <point x="1190" y="261.1059602649"/>
      <point x="932" y="0"/>
      <point x="701" y="0" type="qcurve" smooth="yes"/>
    </contour>
  </outline>
</glyph>
<glyph name="El" format="2">
	<unicode hex="041B"/>
	<advance width="1640"/>
	<outline>
		<contour>
			<point x="456" y="754" type="qcurve" smooth="yes"/>
			<point x="508" y="1412" type="line"/>
			<point x="247" y="1446" type="line"/>
			<point x="247" y="1500" type="line"/>
			<point x="1558" y="1500" type="line"/>
			<point x="1558" y="1446" type="line"/>
			<point x="1298" y="1412" type="line"/>
			<point x="1296" y="754" type="line"/>
			<point x="1298" y="75" type="line"/>
			<point x="1558" y="40" type="line"/>
			<point x="1558" y="0" type="line"/>
			<point x="962" y="0" type="line"/>
			<point x="962" y="40" type="line"/>
			<point x="1222" y="75" type="line"/>
			<point x="1224" y="754" type="line"/>
			<point x="1222" y="1412" type="line"/>
			<point x="1178" y="1442" type="line"/>
			<point x="617" y="1442" type="line"/>
			<point x="571" y="1412" type="line"/>
			<point x="519" y="754" type="line" smooth="yes"/>
			<point x="485.3333967464" y="327.9879819061"/>
			<point x="332.5" y="-17"/>
			<point x="146" y="-17" type="qcurve" smooth="yes"/>
			<point x="115" y="-17"/>
			<point x="79" y="-10"/>
			<point x="50" y="0" type="qcurve"/>
			<point x="50" y="76" type="line"/>
			<point x="74" y="68"/>
			<point x="111" y="61"/>
			<point x="135" y="61" type="qcurve" smooth="yes"/>
			<point x="300" y="61"/>
			<point x="425" y="367"/>
		</contour>
	</outline>
</glyph>
<glyph name="Soft" format="2">
  <advance width="1288"/>
  <unicode hex="042C"/>
  <outline>
    <contour>
      <point x="429" y="815" type="line"/>
      <point x="420" y="801" type="line"/>
      <point x="420" y="75" type="line"/>
      <point x="453" y="55" type="line"/>
      <point x="705" y="55" type="line" smooth="yes"/>
      <point x="903" y="55"/>
      <point x="1100" y="288"/>
      <point x="1100" y="465" type="qcurve" smooth="yes"/>
      <point x="1100" y="636"/>
      <point x="906.0" y="815.0"/>
      <point x="752" y="815" type="qcurve" smooth="yes"/>
    </contour>
    <contour>
      <point x="419" y="893" type="line"/>
      <point x="428" y="879" type="line"/>
      <point x="704" y="879" type="line" smooth="yes"/>
      <point x="939" y="879"/>
      <point x="1190" y="655"/>
      <point x="1190" y="458" type="qcurve" smooth="yes"/>
      <point x="1190" y="272"/>
      <point x="932" y="0"/>
      <point x="701" y="0" type="qcurve" smooth="yes"/>
      <point x="82" y="0" type="line"/>
      <point x="82" y="40" type="line"/>
      <point x="340" y="76" type="line"/>
      <point x="342" y="784" type="line"/>
      <point x="340" y="1412" type="line"/>
      <point x="82" y="1446" type="line"/>
      <point x="82" y="1500" type="line"/>
      <point x="678" y="1500" type="line"/>
      <point x="678" y="1446" type="line"/>
      <point x="422" y="1412" type="line"/>
    </contour>
  </outline>
</glyph>
<glyph name="Yu" format="2">
	<unicode hex="042E"/>
	<advance width="2354"/>
	<outline>
		<contour>
			<point x="82" y="0" type="line"/>
			<point x="82" y="40" type="line"/>
			<point x="343" y="75" type="line"/>
			<point x="343" y="754" type="line"/>
			<point x="343" y="1412" type="line"/>
			<point x="82" y="1446" type="line"/>
			<point x="82" y="1500" type="line"/>
			<point x="678" y="1500" type="line"/>
			<point x="678" y="1446" type="line"/>
			<point x="417" y="1412" type="line"/>
			<point x="415" y="754" type="line"/>
			<point x="417" y="75" type="line"/>
			<point x="678" y="40" type="line"/>
			<point x="678" y="0" type="line"/>
		</contour>
		<contour>
			<point x="379" y="746" type="line"/>
			<point x="379" y="818" type="line"/>
			<point x="870" y="810" type="line"/>
			<point x="870" y="746" type="line"/>
		</contour>
		<contour>
			<point x="830" y="737" type="qcurve" smooth="yes"/>
			<point x="830" y="1068"/>
			<point x="1214" y="1520"/>
			<point x="1542" y="1520" type="qcurve" smooth="yes"/>
			<point x="1870" y="1520"/>
			<point x="2254" y="1097"/>
			<point x="2254" y="752" type="qcurve" smooth="yes"/>
			<point x="2254" y="423"/>
			<point x="1874" y="-31"/>
			<point x="1546" y="-31" type="qcurve" smooth="yes"/>
			<point x="1226" y="-31"/>
			<point x="830" y="396"/>
		</contour>
		<contour>
			<point x="912" y="773" type="qcurve" smooth="yes"/>
			<point x="912" y="439"/>
			<point x="1284" y="39"/>
			<point x="1544" y="39" type="qcurve" smooth="yes"/>
			<point x="1809" y="39"/>
			<point x="2172" y="413"/>
			<point x="2172" y="745" type="qcurve" smooth="yes"/>
			<point x="2172" y="1058"/>
			<point x="1821" y="1447"/>
			<point x="1544" y="1447" type="qcurve" smooth="yes"/>
			<point x="1279" y="1447"/>
			<point x="912" y="1076"/>
		</contour>
	</outline>
</glyph>
<glyph name="Ya" format="2">
	<unicode hex="042F"/>
	<advance width="1361"/>
	<outline>
		<contour>
			<point x="1279" y="0" type="line"/>
			<point x="1279" y="40" type="line"/>
			<point x="1022" y="76" type="line"/>
			<point x="1020" y="794" type="line"/>
			<point x="1022" y="1412" type="line"/>
			<point x="1279" y="1446" type="line"/>
			<point x="1279" y="1500" type="line"/>
			<point x="688" y="1500" type="line" smooth="yes"/>
			<point x="431" y="1500"/>
			<point x="200" y="1266"/>
			<point x="200" y="1081" type="qcurve" smooth="yes"/>
			<point x="200" y="906"/>
			<point x="402" y="691"/>
			<point x="598" y="686" type="qcurve"/>
			<point x="616" y="679" type="line"/>
			<point x="981" y="687" type="line"/>
			<point x="981" y="742" type="line"/>
			<point x="715" y="742" type="line" smooth="yes"/>
			<point x="471" y="742"/>
			<point x="290" y="926"/>
			<point x="290" y="1069" type="qcurve" smooth="yes"/>
			<point x="290" y="1245"/>
			<point x="476" y="1442"/>
			<point x="700" y="1442" type="qcurve" smooth="yes"/>
			<point x="900" y="1442" type="line"/>
			<point x="939" y="1424" type="line"/>
			<point x="943" y="794" type="line"/>
			<point x="941" y="76" type="line"/>
			<point x="675" y="40" type="line"/>
			<point x="675" y="0" type="line"/>
		</contour>
		<contour>
			<point x="653" y="696" type="line"/>
			<point x="590" y="735" type="line"/>
			<point x="279" y="282" type="line" smooth="yes"/>
			<point x="148" y="91"/>
			<point x="33" y="41"/>
			<point x="-25" y="40" type="qcurve"/>
			<point x="-25" y="0" type="line"/>
			<point x="150" y="0" type="line"/>
			<point x="179" y="20" type="line"/>
		</contour>
	</outline>
</glyph>
<glyph name="ef" format="2">
	<unicode hex="0444"/>
	<advance width="1288"/>
	<outline>
		<contour>
			<point x="396" y="-480" type="line"/>
			<point x="396" y="-440" type="line"/>
			<point x="607" y="-405" type="line"/>
			<point x="608" y="10" type="line"/>
			<point x="608" y="9.5" type="line"/>
			<point x="609" y="527" type="line"/>
			<point x="608" y="993" type="line"/>
			<point x="608" y="993" type="line"/>
			<point x="607" y="1436" type="line"/>
			<point x="372" y="1466" type="line"/>
			<point x="372" y="1500" type="line"/>
			<point x="618" y="1534" type="line"/>
			<point x="650" y="1534" type="line"/>
			<point x="678" y="1502" type="line"/>
			<point x="677" y="993" type="line"/>
			<point x="677" y="993" type="line"/>
			<point x="676" y="527" type="line"/>
			<point x="677" y="9.5" type="line"/>
			<point x="677" y="10" type="line"/>
			<point x="678" y="-405" type="line"/>
			<point x="886" y="-440" type="line"/>
			<point x="886" y="-480" type="line"/>
		</contour>
		<contour>
			<point x="75" y="487" type="qcurve" smooth="yes"/>
			<point x="75" y="711"/>
			<point x="365" y="1022"/>
			<point x="642" y="1022" type="qcurve"/>
			<point x="642" y="964" type="line"/>
			<point x="388" y="964"/>
			<point x="146" y="706"/>
			<point x="146" y="509" type="qcurve" smooth="yes"/>
			<point x="146" y="300"/>
			<point x="388" y="38"/>
			<point x="642" y="38" type="qcurve"/>
			<point x="642" y="-21" type="line"/>
			<point x="357" y="-21"/>
			<point x="75" y="262"/>
		</contour>
		<contour>
			<point x="1213" y="514" type="qcurve" smooth="yes"/>
			<point x="1213" y="290"/>
			<point x="919" y="-21"/>
			<point x="642" y="-21" type="qcurve"/>
			<point x="642" y="38" type="line"/>
			<point x="896" y="38"/>
			<point x="1142" y="295"/>
			<point x="1142" y="492" type="qcurve" smooth="yes"/>
			<point x="1142" y="701"/>
			<point x="896" y="964"/>
			<point x="642" y="964" type="qcurve"/>
			<point x="642" y="1022" type="line"/>
			<point x="927" y="1022"/>
			<point x="1213" y="739"/>
		</contour>
	</outline>
</glyph>
<glyph name="tse" format="2">
	<unicode hex="0446"/>
	<advance width="1247"/>
	<outline>
		<contour>
			<point x="249" y="502" type="line"/>
			<point x="247" y="925" type="line"/>
			<point x="76" y="960" type="line"/>
			<point x="76" y="1000" type="line"/>
			<point x="495" y="1000" type="line"/>
			<point x="495" y="960" type="line"/>
			<point x="320" y="925" type="line"/>
			<point x="317" y="502" type="line"/>
			<point x="320" y="55" type="line"/>
			<point x="920" y="55" type="line"/>
			<point x="923" y="502" type="line"/>
			<point x="920" y="925" type="line"/>
			<point x="745" y="960" type="line"/>
			<point x="745" y="1000" type="line"/>
			<point x="1164" y="1000" type="line"/>
			<point x="1164" y="960" type="line"/>
			<point x="993" y="925" type="line"/>
			<point x="991" y="502" type="line"/>
			<point x="993" y="55" type="line"/>
			<point x="1161" y="55" type="line"/>
			<point x="1171" y="-318" type="line"/>
			<point x="1131" y="-318" type="line"/>
			<point x="1090" y="0" type="line"/>
			<point x="76" y="0" type="line"/>
			<point x="76" y="40" type="line"/>
			<point x="247" y="75" type="line"/>
		</contour>
	</outline>
</glyph>
<glyph name="hard" format="2">
  <advance width="1253"/>
  <unicode hex="044A"/>
  <outline>
    <contour>
      <point x="705" y="1000" type="line"/>
      <point x="705" y="960" type="line"/>
      <point x="530" y="925" type="line"/>
      <point x="527" y="498" type="line"/>
      <point x="529" y="55" type="line"/>
      <point x="796" y="55" type="line" smooth="yes"/>
      <point x="941" y="55"/>
      <point x="1063" y="203"/>
      <point x="1063" y="319" type="qcurve" smooth="yes"/>
      <point x="1063" y="421"/>
      <point x="940.0" y="544.0"/>
      <point x="796" y="544" type="qcurve" smooth="yes"/>
      <point x="493" y="544" type="line"/>
      <point x="493" y="599" type="line"/>
      <point x="796" y="599" type="line" smooth="yes"/>
      <point x="957" y="599"/>
      <point x="1134" y="460"/>
      <point x="1134" y="319" type="qcurve" smooth="yes"/>
      <point x="1134" y="171"/>
      <point x="959.0" y="0.0"/>
      <point x="796" y="0" type="qcurve" smooth="yes"/>
      <point x="286" y="0" type="line"/>
      <point x="286" y="40" type="line"/>
      <point x="457" y="75" type="line"/>
      <point x="459" y="498" type="line"/>
      <point x="457" y="945" type="line"/>
      <point x="146" y="945" type="line"/>
      <point x="110" y="662" type="line"/>
      <point x="70" y="662" type="line"/>
      <point x="78" y="1000" type="line"/>
    </contour>
  </outline>
</glyph>
<glyph name="yu" format="2">
	<unicode hex="044E"/>
	<advance width="1672"/>
	<outline>
		<contour>
			<point x="283" y="541" type="line"/>
			<point x="637" y="538" type="line"/>
			<point x="637" y="484" type="line"/>
			<point x="283" y="482" type="line"/>
		</contour>
		<contour>
			<point x="249" y="498" type="line"/>
			<point x="247" y="925" type="line"/>
			<point x="76" y="960" type="line"/>
			<point x="76" y="1000" type="line"/>
			<point x="495" y="1000" type="line"/>
			<point x="495" y="960" type="line"/>
			<point x="320" y="925" type="line"/>
			<point x="317" y="498" type="line"/>
			<point x="320" y="75" type="line"/>
			<point x="495" y="40" type="line"/>
			<point x="495" y="0" type="line"/>
			<point x="76" y="0" type="line"/>
			<point x="76" y="40" type="line"/>
			<point x="247" y="75" type="line"/>
		</contour>
		<contour>
			<point x="599" y="500" type="qcurve" smooth="yes"/>
			<point x="599" y="710"/>
			<point x="882" y="1022"/>
			<point x="1096" y="1022" type="qcurve" smooth="yes"/>
			<point x="1320" y="1022"/>
			<point x="1597" y="736"/>
			<point x="1597" y="506" type="qcurve" smooth="yes"/>
			<point x="1597" y="291"/>
			<point x="1325" y="-21"/>
			<point x="1102" y="-21" type="qcurve" smooth="yes"/>
			<point x="878" y="-21"/>
			<point x="599" y="268"/>
		</contour>
		<contour>
			<point x="670" y="523" type="qcurve" smooth="yes"/>
			<point x="672" y="318"/>
			<point x="901" y="35"/>
			<point x="1094" y="35" type="qcurve" smooth="yes"/>
			<point x="1300" y="35"/>
			<point x="1525" y="293"/>
			<point x="1525" y="507" type="qcurve" smooth="yes"/>
			<point x="1525" y="705"/>
			<point x="1291" y="961"/>
			<point x="1097" y="961" type="qcurve" smooth="yes"/>
			<point x="907" y="961"/>
			<point x="668" y="706"/>
		</contour>
	</outline>
</glyph>
<glyph name="ieukran" format="2">
  <advance width="1020"/>
  <unicode hex="0454"/>
  <outline>
    <contour>
      <point x="111" y="530" type="line"/>
      <point x="640" y="533" type="line"/>
      <point x="640" y="466" type="line"/>
      <point x="111" y="468" type="line"/>
    </contour>
    <contour>
      <point x="75" y="503" type="qcurve" smooth="yes"/>
      <point x="75" y="714"/>
      <point x="325" y="1022"/>
      <point x="551" y="1022" type="qcurve" smooth="yes"/>
      <point x="639" y="1022"/>
      <point x="773" y="963"/>
      <point x="809" y="926" type="qcurve"/>
      <point x="853" y="998" type="line"/>
      <point x="891" y="998" type="line"/>
      <point x="891" y="662" type="line"/>
      <point x="848" y="662" type="line"/>
      <point x="824" y="753" type="line" smooth="yes"/>
      <point x="797" y="857"/>
      <point x="667" y="960"/>
      <point x="550" y="960" type="qcurve" smooth="yes"/>
      <point x="379" y="960"/>
      <point x="146" y="720"/>
      <point x="146" y="524" type="qcurve" smooth="yes"/>
      <point x="146" y="305"/>
      <point x="381" y="40"/>
      <point x="562" y="40" type="qcurve" smooth="yes"/>
      <point x="690" y="40"/>
      <point x="872" y="148"/>
      <point x="922" y="203" type="qcurve"/>
      <point x="956" y="160" type="line"/>
      <point x="914" y="100"/>
      <point x="719" y="-22"/>
      <point x="550" y="-22" type="qcurve" smooth="yes"/>
      <point x="364" y="-22"/>
      <point x="75" y="256"/>
    </contour>
  </outline>
</glyph>
<glyph name="gheup" format="2">
	<unicode hex="0491"/>
	<advance width="936"/>
	<outline>
		<contour>
			<point x="856" y="945" type="line"/>
			<point x="320" y="945" type="line"/>
			<point x="317" y="498" type="line"/>
			<point x="320" y="75" type="line"/>
			<point x="515" y="40" type="line"/>
			<point x="515" y="0" type="line"/>
			<point x="76" y="0" type="line"/>
			<point x="76" y="40" type="line"/>
			<point x="247" y="75" type="line"/>
			<point x="249" y="498" type="line"/>
			<point x="247" y="925" type="line"/>
			<point x="76" y="960" type="line"/>
			<point x="76" y="1000" type="line"/>
			<point x="785" y="1000" type="line"/>
			<point x="826" y="1318" type="line"/>
			<point x="866" y="1318" type="line"/>
		</contour>
	</outline>
</glyph>
<glyph name="kadescender" format="2">
	<unicode hex="049B"/>
	<advance width="1109"/>
	<outline>
		<contour>
			<point x="511" y="492" type="line"/>
			<point x="561" y="538" type="line"/>
			<point x="987" y="55" type="line"/>
			<point x="987" y="0" type="line"/>
			<point x="882" y="0" type="line"/>
			<point x="870" y="39" type="line"/>
			<point x="879" y="71" type="line"/>
		</contour>
		<contour>
			<point x="282" y="541" type="line"/>
			<point x="523" y="540" type="line"/>
			<point x="829" y="930" type="line"/>
			<point x="669" y="960" type="line"/>
			<point x="669" y="1000" type="line"/>
			<point x="1069" y="1000" type="line"/>
			<point x="1069" y="960" type="line"/>
			<point x="901" y="925" type="line"/>
			<point x="544" y="482" type="line"/>
			<point x="282" y="481" type="line"/>
		</contour>
		<contour>
			<point x="249" y="498" type="line"/>
			<point x="247" y="925" type="line"/>
			<point x="76" y="960" type="line"/>
			<point x="76" y="1000" type="line"/>
			<point x="495" y="1000" type="line"/>
			<point x="495" y="960" type="line"/>
			<point x="320" y="925" type="line"/>
			<point x="317" y="498" type="line"/>
			<point x="320" y="75" type="line"/>
			<point x="495" y="40" type="line"/>
			<point x="495" y="0" type="line"/>
			<point x="76" y="0" type="line"/>
			<point x="76" y="40" type="line"/>
			<point x="247" y="75" type="line"/>
		</contour>
		<contour>
			<point x="921" y="55" type="line"/>
			<point x="1089" y="55" type="line"/>
			<point x="1099" y="-318" type="line"/>
			<point x="1059" y="-318" type="line"/>
			<point x="1018" y="0" type="line"/>
			<point x="921" y="0" type="line"/>
		</contour>
	</outline>
</glyph>
<glyph name="Kaverticalstrokecyr" format="2">
  <advance width="1711"/>
  <unicode hex="049C"/>
  <outline>
    <contour>
      <point x="770" y="1185" type="line"/>
      <point x="770" y="329" type="line"/>
      <point x="690" y="329" type="line"/>
      <point x="690" y="1185" type="line"/>
    </contour>
    <contour>
      <point x="82" y="0" type="line"/>
      <point x="82" y="40" type="line"/>
      <point x="340" y="75" type="line"/>
      <point x="342" y="754" type="line"/>
      <point x="340" y="1412" type="line"/>
      <point x="82" y="1446" type="line"/>
      <point x="82" y="1500" type="line"/>
      <point x="668" y="1500" type="line"/>
      <point x="668" y="1446" type="line"/>
      <point x="420" y="1412" type="line"/>
      <point x="418" y="754" type="line"/>
      <point x="420" y="75" type="line"/>
      <point x="678" y="40" type="line"/>
      <point x="678" y="0" type="line"/>
    </contour>
    <contour>
      <point x="731" y="744" type="line"/>
      <point x="731" y="815" type="line"/>
      <point x="901" y="814" type="line"/>
      <point x="1326" y="1398" type="line"/>
      <point x="1114" y="1446" type="line"/>
      <point x="1114" y="1500" type="line"/>
      <point x="1598" y="1500" type="line"/>
      <point x="1598" y="1446" type="line"/>
      <point x="1420" y="1398" type="line"/>
      <point x="948" y="771" type="line"/>
      <point x="919" y="745" type="line"/>
    </contour>
    <contour>
      <point x="895" y="754" type="line"/>
      <point x="943" y="809" type="line"/>
      <point x="1487" y="75" type="line"/>
      <point x="1684" y="40" type="line"/>
      <point x="1684" y="0" type="line"/>
      <point x="1179" y="0" type="line"/>
      <point x="1179" y="40" type="line"/>
      <point x="1387" y="75" type="line"/>
    </contour>
  </outline>
</glyph>
<glyph name="Kabashkircyr" format="2">
  <advance width="1681"/>
  <unicode hex="04A0"/>
  <outline>
    <contour>
      <point x="610" y="757" type="line"/>
      <point x="610" y="828" type="line"/>
      <point x="913" y="824" type="line"/>
      <point x="1356" y="1398" type="line"/>
      <point x="1144" y="1446" type="line"/>
      <point x="1144" y="1500" type="line"/>
      <point x="1630" y="1500" type="line"/>
      <point x="1630" y="1446" type="line"/>
      <point x="1452" y="1398" type="line"/>
      <point x="962" y="781" type="line"/>
      <point x="931" y="755" type="line"/>
    </contour>
    <contour>
      <point x="897" y="764" type="line"/>
      <point x="947" y="819" type="line"/>
      <point x="1539" y="75" type="line"/>
      <point x="1716" y="40" type="line"/>
      <point x="1716" y="0" type="line"/>
      <point x="1239" y="0" type="line"/>
      <point x="1239" y="40" type="line"/>
      <point x="1437" y="75" type="line"/>
    </contour>
    <contour>
      <point x="570" y="1442" type="line"/>
      <point x="155" y="1442" type="line"/>
      <point x="120" y="1102" type="line"/>
      <point x="60" y="1102" type="line"/>
      <point x="60" y="1500" type="line"/>
      <point x="898" y="1500" type="line"/>
      <point x="898" y="1446" type="line"/>
      <point x="650" y="1412" type="line"/>
      <point x="648" y="764" type="line"/>
      <point x="650" y="75" type="line"/>
      <point x="908" y="40" type="line"/>
      <point x="908" y="0" type="line"/>
      <point x="312" y="0" type="line"/>
      <point x="312" y="40" type="line"/>
      <point x="570" y="75" type="line"/>
      <point x="572" y="764" type="line"/>
    </contour>
  </outline>
</glyph>
<glyph name="Chedescender-cy" format="2">
  <advance width="1678"/>
  <unicode hex="04B6"/>
  <outline>
    <contour>
      <point x="80" y="1446" type="line"/>
      <point x="80" y="1500" type="line"/>
      <point x="646" y="1500" type="line"/>
      <point x="646" y="1446" type="line"/>
      <point x="395" y="1412" type="line"/>
      <point x="393" y="1074" type="line" smooth="yes"/>
      <point x="392" y="862"/>
      <point x="594" y="679"/>
      <point x="804" y="679" type="qcurve" smooth="yes"/>
      <point x="966" y="679"/>
      <point x="1168" y="716"/>
      <point x="1276" y="753" type="qcurve"/>
      <point x="1276" y="695" type="line"/>
      <point x="1166" y="655"/>
      <point x="961" y="616"/>
      <point x="804" y="616" type="qcurve" smooth="yes"/>
      <point x="565" y="616"/>
      <point x="321" y="823"/>
      <point x="321" y="1081" type="qcurve" smooth="yes"/>
      <point x="321" y="1412" type="line"/>
    </contour>
    <contour>
      <point x="1336" y="48" type="line"/>
      <point x="1574" y="48" type="line"/>
      <point x="1584" y="-338" type="line"/>
      <point x="1544" y="-338" type="line"/>
      <point x="1497" y="0" type="line"/>
      <point x="1000" y="0" type="line"/>
      <point x="1000" y="40" type="line"/>
      <point x="1260" y="75" type="line"/>
      <point x="1262" y="754" type="line"/>
      <point x="1260" y="1412" type="line"/>
      <point x="1000" y="1446" type="line"/>
      <point x="1000" y="1500" type="line"/>
      <point x="1556" y="1500" type="line"/>
      <point x="1556" y="1446" type="line"/>
      <point x="1336" y="1412" type="line"/>
      <point x="1334" y="754" type="line"/>
    </contour>
  </outline>
</glyph>
<glyph name="hastroke-cy" format="2">
  <advance width="1043"/>
  <unicode hex="04FF"/>
  <outline>
    <contour>
      <point x="235" y="466" type="line"/>
      <point x="235" y="532" type="line"/>
      <point x="520" y="530" type="line"/>
      <point x="803" y="532" type="line"/>
      <point x="801" y="466" type="line"/>
      <point x="520" y="468" type="line"/>
    </contour>
    <contour>
      <point x="16" y="0" type="line"/>
      <point x="16" y="34" type="line"/>
      <point x="194" y="69" type="line"/>
      <point x="491" y="509" type="line"/>
      <point x="504" y="527" type="line"/>
      <point x="777" y="932" type="line"/>
      <point x="590" y="962" type="line"/>
      <point x="590" y="1000" type="line"/>
      <point x="1006" y="1000" type="line"/>
      <point x="1006" y="962" type="line"/>
      <point x="848" y="927" type="line"/>
      <point x="548" y="479" type="line"/>
      <point x="542" y="470" type="line"/>
      <point x="265" y="64" type="line"/>
      <point x="432" y="34" type="line"/>
      <point x="432" y="0" type="line"/>
    </contour>
    <contour>
      <point x="20" y="962" type="line"/>
      <point x="20" y="1000" type="line"/>
      <point x="442" y="1000" type="line"/>
      <point x="442" y="962" type="line"/>
      <point x="249" y="925" type="line"/>
      <point x="536" y="531" type="line"/>
      <point x="885" y="69" type="line"/>
      <point x="1043" y="34" type="line"/>
      <point x="1043" y="0" type="line"/>
      <point x="611" y="0" type="line"/>
      <point x="611" y="34" type="line"/>
      <point x="795" y="71" type="line"/>
      <point x="492" y="470" type="line"/>
      <point x="160" y="927" type="line"/>
    </contour>
  </outline>
</glyph>
<glyph name="quoteleft" format="2">
	<unicode hex="2018"/>
	<advance width="600"/>
	<outline>
		<contour>
			<point x="488" y="1506" type="line"/>
			<point x="420" y="1463"/>
			<point x="307" y="1316"/>
			<point x="288" y="1244" type="qcurve"/>
			<point x="360" y="1252"/>
			<point x="427" y="1190"/>
			<point x="427" y="1151" type="qcurve" smooth="yes"/>
			<point x="427" y="1109"/>
			<point x="371" y="1055"/>
			<point x="328" y="1055" type="qcurve" smooth="yes"/>
			<point x="279" y="1055"/>
			<point x="218" y="1122"/>
			<point x="218" y="1187" type="qcurve" smooth="yes"/>
			<point x="218" y="1284"/>
			<point x="367" y="1497"/>
			<point x="458" y="1541" type="qcurve"/>
		</contour>
	</outline>
</glyph>
<glyph name="quotesinglbase" format="2">
  <advance width="600"/>
  <unicode hex="201A"/>
  <outline>
    <contour>
      <point x="145" y="-240" type="line"/>
      <point x="213" y="-197"/>
      <point x="326" y="-50"/>
      <point x="345" y="22" type="qcurve"/>
      <point x="273" y="14"/>
      <point x="206" y="76"/>
      <point x="206" y="115" type="qcurve" smooth="yes"/>
      <point x="206" y="157"/>
      <point x="262" y="211"/>
      <point x="305" y="211" type="qcurve" smooth="yes"/>
      <point x="354" y="211"/>
      <point x="415" y="144"/>
      <point x="415" y="79" type="qcurve" smooth="yes"/>
      <point x="415" y="-18"/>
      <point x="266" y="-231"/>
      <point x="175" y="-275" type="qcurve"/>
    </contour>
  </outline>
</glyph>
<glyph name="minute" format="2">
  <advance width="654"/>
  <unicode hex="2032"/>
  <outline>
    <contour>
      <point x="149" y="985" type="line"/>
      <point x="399" y="1433" type="line" smooth="yes"/>
      <point x="422" y="1475"/>
      <point x="480" y="1535.0"/>
      <point x="517" y="1512" type="qcurve" smooth="yes"/>
      <point x="554" y="1489"/>
      <point x="534" y="1410"/>
      <point x="508" y="1375" type="qcurve" smooth="yes"/>
      <point x="201" y="965" type="line"/>
    </contour>
  </outline>
</glyph>
<glyph name="lira" format="2">
  <advance width="1072"/>
  <unicode hex="20A4"/>
  <outline>
    <contour>
      <point x="560.0" y="471" type="qcurve" smooth="yes"/>
      <point x="560.0" y="317"/>
      <point x="402.0" y="129.0"/>
      <point x="255" y="78" type="qcurve"/>
      <point x="255" y="61" type="line"/>
      <point x="817" y="58" type="line"/>
      <point x="951" y="372" type="line"/>
      <point x="1010" y="372" type="line"/>
      <point x="911" y="0" type="line"/>
      <point x="50" y="0" type="line"/>
      <point x="17" y="51" type="line"/>
      <point x="45" y="80" type="line"/>
      <point x="240.0" y="80.0"/>
      <point x="478.0" y="312.0"/>
      <point x="478.0" y="445" type="qcurve" smooth="yes"/>
      <point x="478" y="544"/>
      <point x="397" y="685"/>
      <point x="345" y="754" type="qcurve" smooth="yes"/>
      <point x="275" y="847"/>
      <point x="150" y="1048"/>
      <point x="150.0" y="1172" type="qcurve" smooth="yes"/>
      <point x="150" y="1305.0"/>
      <point x="340" y="1501"/>
      <point x="529" y="1501" type="qcurve" smooth="yes"/>
      <point x="664" y="1501"/>
      <point x="880" y="1381"/>
      <point x="939" y="1292" type="qcurve"/>
      <point x="895" y="1258" type="line"/>
      <point x="843" y="1323"/>
      <point x="681" y="1442"/>
      <point x="527" y="1442" type="qcurve" smooth="yes"/>
      <point x="386" y="1442"/>
      <point x="243" y="1280.0"/>
      <point x="243" y="1172" type="qcurve" smooth="yes"/>
      <point x="243" y="1096"/>
      <point x="336" y="905"/>
      <point x="401" y="818" type="qcurve" smooth="yes"/>
      <point x="458" y="741"/>
      <point x="560" y="577"/>
    </contour>
    <contour>
      <point x="121" y="551" type="line"/>
      <point x="107" y="622" type="line"/>
      <point x="841" y="622" type="line"/>
      <point x="831" y="551" type="line"/>
    </contour>
    <contour>
      <point x="81" y="816" type="line"/>
      <point x="67" y="887" type="line"/>
      <point x="891" y="887" type="line"/>
      <point x="881" y="816" type="line"/>
    </contour>
  </outline>
</glyph>
<glyph name="won" format="2">
  <advance width="2102"/>
  <unicode hex="20A9"/>
  <outline>
    <contour>
      <point x="-22" y="1446" type="line"/>
      <point x="-20" y="1500" type="line"/>
      <point x="504" y="1500" type="line"/>
      <point x="502" y="1446" type="line"/>
      <point x="272" y="1405" type="line"/>
      <point x="482" y="771" type="line"/>
      <point x="702" y="104" type="line"/>
      <point x="893" y="671" type="line"/>
      <point x="1055" y="1152" type="line"/>
      <point x="1083" y="1061" type="line"/>
      <point x="952" y="647" type="line"/>
      <point x="729" y="-8" type="line"/>
      <point x="664" y="-8" type="line"/>
      <point x="415" y="740" type="line"/>
      <point x="186" y="1407" type="line"/>
    </contour>
    <contour>
      <point x="696" y="1454" type="line"/>
      <point x="698" y="1500" type="line"/>
      <point x="1232" y="1500" type="line"/>
      <point x="1230" y="1454" type="line"/>
      <point x="1002" y="1413" type="line"/>
      <point x="1205" y="800" type="line"/>
      <point x="1432" y="87" type="line"/>
      <point x="1660" y="781" type="line"/>
      <point x="1883" y="1412" type="line"/>
      <point x="1616" y="1446" type="line"/>
      <point x="1616" y="1500" type="line"/>
      <point x="2152" y="1500" type="line"/>
      <point x="2152" y="1446" type="line"/>
      <point x="1964" y="1407" type="line"/>
      <point x="1728" y="759" type="line"/>
      <point x="1471" y="-8" type="line"/>
      <point x="1379" y="-8" type="line"/>
      <point x="1139" y="750" type="line"/>
      <point x="914" y="1415" type="line"/>
    </contour>
    <contour>
      <point x="1924" y="583" type="line"/>
      <point x="1622" y="583" type="line"/>
      <point x="1622" y="581" type="line"/>
      <point x="1243" y="581" type="line"/>
      <point x="1216" y="663" type="line"/>
      <point x="1661" y="663" type="line"/>
      <point x="1661" y="662" type="line"/>
      <point x="1963" y="662" type="line"/>
    </contour>
    <contour>
      <point x="2013" y="937" type="line"/>
      <point x="1721" y="937" type="line"/>
      <point x="1721" y="938" type="line"/>
      <point x="1125" y="938" type="line"/>
      <point x="1090" y="1015" type="line"/>
      <point x="1761" y="1015" type="line"/>
      <point x="1761" y="1014" type="line"/>
      <point x="2061" y="1014" type="line"/>
    </contour>
    <contour>
      <point x="197" y="583" type="line"/>
      <point x="158" y="662" type="line"/>
      <point x="490" y="662" type="line"/>
      <point x="490" y="663" type="line"/>
      <point x="1216" y="663" type="line"/>
      <point x="1243" y="581" type="line"/>
      <point x="519" y="581" type="line"/>
      <point x="519" y="583" type="line"/>
    </contour>
    <contour>
      <point x="108" y="937" type="line"/>
      <point x="60" y="1014" type="line"/>
      <point x="380" y="1014" type="line"/>
      <point x="380" y="1015" type="line"/>
      <point x="1091" y="1015" type="line"/>
      <point x="1125" y="938" type="line"/>
      <point x="410" y="938" type="line"/>
      <point x="410" y="937" type="line"/>
    </contour>
  </outline>
</glyph>
<glyph name="tenge" format="2">
	<unicode hex="20B8"/>
	<advance width="1288"/>
	<outline>
		<contour>
			<point x="60" y="1435" type="line"/>
			<point x="84" y="1500" type="line"/>
			<point x="1198" y="1500" type="line"/>
			<point x="1228" y="1435" type="line"/>
		</contour>
		<contour>
			<point x="60" y="823" type="line"/>
			<point x="60" y="1221" type="line"/>
			<point x="1228" y="1221" type="line"/>
			<point x="1228" y="823" type="line"/>
			<point x="1168" y="823" type="line"/>
			<point x="1133" y="1163" type="line"/>
			<point x="703" y="1163" type="line"/>
			<point x="684" y="1143" type="line"/>
			<point x="682" y="615" type="line"/>
			<point x="684" y="76" type="line"/>
			<point x="951" y="40" type="line"/>
			<point x="951" y="0" type="line"/>
			<point x="335" y="0" type="line"/>
			<point x="335" y="40" type="line"/>
			<point x="604" y="76" type="line"/>
			<point x="606" y="615" type="line"/>
			<point x="604" y="1143" type="line"/>
			<point x="595" y="1163" type="line"/>
			<point x="155" y="1163" type="line"/>
			<point x="120" y="823" type="line"/>
		</contour>
	</outline>
</glyph>
<glyph name="divisionslash" format="2">
  <advance width="656"/>
  <unicode hex="2215"/>
  <outline>
    <contour>
      <point x="-42" y="-121" type="line"/>
      <point x="574" y="1552" type="line"/>
      <point x="665" y="1515" type="line"/>
      <point x="49" y="-158" type="line"/>
    </contour>
  </outline>
</glyph>
<glyph name="fl" format="2">
	<unicode hex="FB02"/>
	<advance width="1260"/>
	<outline>
		<contour>
			<point x="64" y="0" type="line"/>
			<point x="64" y="40" type="line"/>
			<point x="272" y="75" type="line"/>
			<point x="274" y="527" type="line"/>
			<point x="271" y="928" type="line"/>
			<point x="73" y="933" type="line"/>
			<point x="73" y="966" type="line"/>
			<point x="273" y="983" type="line"/>
			<point x="277" y="1333" type="line" smooth="yes"/>
			<point x="278" y="1432"/>
			<point x="380" y="1537"/>
			<point x="445" y="1537" type="qcurve" smooth="yes"/>
			<point x="492" y="1537"/>
			<point x="560" y="1521"/>
			<point x="590" y="1515" type="qcurve" smooth="yes"/>
			<point x="617" y="1508" type="line"/>
			<point x="930" y="1534" type="line"/>
			<point x="962" y="1534" type="line"/>
			<point x="990" y="1502" type="line"/>
			<point x="988" y="527" type="line"/>
			<point x="990" y="75" type="line"/>
			<point x="1198" y="40" type="line"/>
			<point x="1198" y="0" type="line"/>
			<point x="708" y="0" type="line"/>
			<point x="708" y="40" type="line"/>
			<point x="919" y="75" type="line"/>
			<point x="921" y="527" type="line"/>
			<point x="919" y="1436" type="line"/>
			<point x="593" y="1468" type="line" smooth="yes"/>
			<point x="577" y="1470"/>
			<point x="508" y="1476"/>
			<point x="470" y="1476" type="qcurve" smooth="yes"/>
			<point x="411" y="1476"/>
			<point x="330" y="1394"/>
			<point x="333" y="1308" type="qcurve" smooth="yes"/>
			<point x="335" y="985" type="line"/>
			<point x="622" y="985" type="line"/>
			<point x="622" y="934" type="line"/>
			<point x="335" y="934" type="line"/>
			<point x="337" y="527" type="line"/>
			<point x="344" y="75" type="line"/>
			<point x="534" y="40" type="line"/>
			<point x="534" y="0" type="line"/>
		</contour>
	</outline>
</glyph>
<glyph name="El.bgr" format="2">
	<advance width="1456"/>
	<outline>
		<contour>
			<point x="1481" y="46" type="line"/>
			<point x="1481" y="-8" type="line"/>
			<point x="1027" y="-8" type="line"/>
			<point x="1027" y="46" type="line"/>
			<point x="1225" y="87" type="line"/>
			<point x="989" y="712" type="line"/>
			<point x="729" y="1397" type="line"/>
			<point x="467" y="703" type="line"/>
			<point x="244" y="80" type="line"/>
			<point x="481" y="46" type="line"/>
			<point x="481" y="-8" type="line"/>
			<point x="-25" y="-8" type="line"/>
			<point x="-25" y="46" type="line"/>
			<point x="168" y="85" type="line"/>
			<point x="415" y="738" type="line"/>
			<point x="697" y="1500" type="line"/>
			<point x="769" y="1500" type="line"/>
			<point x="1054" y="741" type="line"/>
			<point x="1305" y="85" type="line"/>
		</contour>
	</outline>
</glyph>
<glyph name="Zhe.bgr" format="2">
  <advance width="2120"/>
  <outline>
    <contour>
      <point x="762" y="0" type="line"/>
      <point x="762" y="40" type="line"/>
      <point x="1020" y="75" type="line"/>
      <point x="1022" y="754" type="line"/>
      <point x="1020" y="1412" type="line"/>
      <point x="762" y="1446" type="line"/>
      <point x="762" y="1500" type="line"/>
      <point x="1348" y="1500" type="line"/>
      <point x="1348" y="1446" type="line"/>
      <point x="1100" y="1412" type="line"/>
      <point x="1098" y="754" type="line"/>
      <point x="1100" y="75" type="line"/>
      <point x="1358" y="40" type="line"/>
      <point x="1358" y="0" type="line"/>
    </contour>
    <contour>
      <point x="1060" y="499" type="line"/>
      <point x="1060" y="584" type="line"/>
      <point x="1758" y="1398" type="line"/>
      <point x="1551" y="1446" type="line"/>
      <point x="1551" y="1500" type="line"/>
      <point x="2037" y="1500" type="line"/>
      <point x="2037" y="1446" type="line"/>
      <point x="1857" y="1398" type="line"/>
      <point x="1383" y="863" type="line"/>
      <point x="1347" y="825" type="line"/>
    </contour>
    <contour>
      <point x="1331" y="832" type="line"/>
      <point x="1384" y="888" type="line"/>
      <point x="1926" y="75" type="line"/>
      <point x="2123" y="40" type="line"/>
      <point x="2123" y="0" type="line"/>
      <point x="1620" y="0" type="line"/>
      <point x="1620" y="40" type="line"/>
      <point x="1831" y="75" type="line"/>
    </contour>
    <contour>
      <point x="1060" y="499" type="line"/>
      <point x="773" y="825" type="line"/>
      <point x="737" y="863" type="line"/>
      <point x="263" y="1398" type="line"/>
      <point x="83" y="1446" type="line"/>
      <point x="83" y="1500" type="line"/>
      <point x="569" y="1500" type="line"/>
      <point x="569" y="1446" type="line"/>
      <point x="362" y="1398" type="line"/>
      <point x="1060" y="584" type="line"/>
    </contour>
    <contour>
      <point x="789" y="832" type="line"/>
      <point x="289" y="75" type="line"/>
      <point x="500" y="40" type="line"/>
      <point x="500" y="0" type="line"/>
      <point x="-3" y="0" type="line"/>
      <point x="-3" y="40" type="line"/>
      <point x="196" y="75" type="line"/>
      <point x="738" y="888" type="line"/>
    </contour>
  </outline>
</glyph>
<glyph name="cedillacomb.case" format="2">
	<advance width="1024"/>
	<outline>
		<contour>
			<point x="543" y="5" type="line"/>
			<point x="459" y="-151" type="line"/>
			<point x="479" y="-144"/>
			<point x="551" y="-124"/>
			<point x="574" y="-124" type="qcurve" smooth="yes"/>
			<point x="677" y="-124"/>
			<point x="773" y="-225"/>
			<point x="773" y="-317" type="qcurve" smooth="yes"/>
			<point x="773" y="-414"/>
			<point x="643" y="-536"/>
			<point x="545" y="-536" type="qcurve" smooth="yes"/>
			<point x="456" y="-536"/>
			<point x="296" y="-498"/>
			<point x="237" y="-450" type="qcurve"/>
			<point x="275" y="-384" type="line"/>
			<point x="307" y="-407"/>
			<point x="432" y="-463"/>
			<point x="515" y="-463" type="qcurve" smooth="yes"/>
			<point x="574" y="-463"/>
			<point x="687" y="-397"/>
			<point x="687" y="-322" type="qcurve" smooth="yes"/>
			<point x="687" y="-247"/>
			<point x="608" y="-191"/>
			<point x="550" y="-191" type="qcurve" smooth="yes"/>
			<point x="510" y="-191"/>
			<point x="429" y="-215"/>
			<point x="413" y="-223" type="qcurve"/>
			<point x="364" y="-169" type="line"/>
			<point x="477" y="43" type="line"/>
		</contour>
	</outline>
</glyph>
<glyph name="commaaccentcomb.case" format="2">
	<advance width="1024"/>
	<outline>
		<contour>
			<point x="362" y="-625" type="line"/>
			<point x="409" y="-589"/>
			<point x="503" y="-469"/>
			<point x="522" y="-418" type="qcurve"/>
			<point x="456" y="-417"/>
			<point x="400" y="-363"/>
			<point x="400" y="-320" type="qcurve" smooth="yes"/>
			<point x="400" y="-278"/>
			<point x="461" y="-217"/>
			<point x="507" y="-217" type="qcurve" smooth="yes"/>
			<point x="550" y="-217"/>
			<point x="616" y="-272"/>
			<point x="616" y="-327" type="qcurve" smooth="yes"/>
			<point x="616" y="-415"/>
			<point x="493" y="-612"/>
			<point x="398" y="-671" type="qcurve"/>
		</contour>
	</outline>
</glyph>
<glyph name="engtail" format="2">
  <advance width="629"/>
  <outline>
    <contour>
      <point x="429" y="170" type="line"/>
      <point x="502" y="170" type="line"/>
      <point x="502" y="-195" type="line" smooth="yes"/>
      <point x="502" y="-295"/>
      <point x="401" y="-433"/>
      <point x="269" y="-433" type="qcurve" smooth="yes"/>
      <point x="197" y="-433"/>
      <point x="90" y="-377"/>
      <point x="65" y="-343" type="qcurve"/>
      <point x="108" y="-278" type="line"/>
      <point x="135" y="-307"/>
      <point x="217" y="-350"/>
      <point x="258" y="-350" type="qcurve" smooth="yes"/>
      <point x="317" y="-350"/>
      <point x="401" y="-285"/>
      <point x="401" y="-185" type="qcurve" smooth="yes"/>
      <point x="401" y="-106"/>
      <point x="401" y="150"/>
      <point x="401" y="150" type="qcurve"/>
    </contour>
  </outline>
</glyph>
<glyph name="five.tab" format="2">
  <advance width="1000"/>
  <outline>
    <contour>
      <point x="50" y="159" type="qcurve"/>
      <point x="93" y="217" type="line"/>
      <point x="127" y="161"/>
      <point x="316" y="41"/>
      <point x="459" y="41" type="qcurve" smooth="yes"/>
      <point x="612" y="41"/>
      <point x="827" y="227"/>
      <point x="827" y="429" type="qcurve" smooth="yes"/>
      <point x="827" y="628"/>
      <point x="574.0" y="853.0"/>
      <point x="360" y="853" type="qcurve" smooth="yes"/>
      <point x="182" y="853" type="line"/>
      <point x="164" y="861" type="line"/>
      <point x="232" y="1467" type="line"/>
      <point x="259" y="1500" type="line"/>
      <point x="847" y="1500" type="line"/>
      <point x="838" y="1424" type="line"/>
      <point x="307" y="1424" type="line"/>
      <point x="297" y="1413" type="line"/>
      <point x="238" y="911" type="line"/>
      <point x="390" y="917" type="line"/>
      <point x="609" y="915"/>
      <point x="916" y="685"/>
      <point x="916" y="463" type="qcurve" smooth="yes"/>
      <point x="916" y="251"/>
      <point x="673" y="-22"/>
      <point x="465" y="-22" type="qcurve" smooth="yes"/>
      <point x="312" y="-22"/>
      <point x="99" y="90"/>
    </contour>
  </outline>
</glyph>
<glyph name="four.lc" format="2">
  <advance width="1146"/>
  <outline>
    <contour>
      <point x="773" y="-376" type="line"/>
      <point x="782" y="119" type="line"/>
      <point x="782" y="975" type="line"/>
      <point x="159" y="164" type="line"/>
      <point x="161" y="159" type="line"/>
      <point x="1147" y="152" type="line"/>
      <point x="1147" y="92" type="line"/>
      <point x="68" y="88" type="line"/>
      <point x="49" y="134" type="line"/>
      <point x="806" y="1127" type="line"/>
      <point x="838" y="1110" type="line"/>
      <point x="865" y="1094" type="line"/>
      <point x="859" y="121" type="line"/>
      <point x="859" y="-376" type="line"/>
    </contour>
  </outline>
</glyph>
<glyph name="four.tab" format="2">
  <advance width="1000"/>
  <outline>
    <contour>
      <point x="28" y="540" type="line"/>
      <point x="710" y="1547" type="line"/>
      <point x="715" y="1547" type="line"/>
      <point x="747" y="1531" type="line"/>
      <point x="741" y="491" type="line"/>
      <point x="741" y="84" type="line"/>
      <point x="969" y="49" type="line"/>
      <point x="969" y="0" type="line"/>
      <point x="427" y="0" type="line"/>
      <point x="427" y="49" type="line"/>
      <point x="665" y="84" type="line"/>
      <point x="674" y="489" type="line"/>
      <point x="674" y="1403" type="line"/>
      <point x="100" y="547" type="line"/>
      <point x="106" y="537" type="line"/>
      <point x="992" y="528" type="line"/>
      <point x="992" y="477" type="line"/>
      <point x="37" y="477" type="line"/>
    </contour>
  </outline>
</glyph>
<glyph name="nine.tab" format="2">
  <advance width="1000"/>
  <outline>
    <contour>
      <point x="935" y="893.0" type="qcurve" smooth="yes"/>
      <point x="935" y="549.0"/>
      <point x="554" y="41.0"/>
      <point x="242" y="-82.0" type="qcurve"/>
      <point x="226" y="-29.0" type="line"/>
      <point x="475" y="73.0"/>
      <point x="850" y="512.0"/>
      <point x="850" y="885.0" type="qcurve" smooth="yes"/>
      <point x="850" y="1107.0"/>
      <point x="638" y="1455"/>
      <point x="461" y="1455.0" type="qcurve" smooth="yes"/>
      <point x="313.0" y="1455.0"/>
      <point x="137" y="1201"/>
      <point x="137" y="1026.0" type="qcurve" smooth="yes"/>
      <point x="137" y="830"/>
      <point x="304" y="646.0"/>
      <point x="431" y="646.0" type="qcurve" smooth="yes"/>
      <point x="521" y="646"/>
      <point x="600" y="682.0"/>
      <point x="636" y="709.0" type="qcurve"/>
      <point x="664" y="664.0" type="line"/>
      <point x="625" y="629.0"/>
      <point x="511" y="581.0"/>
      <point x="403" y="581.0" type="qcurve" smooth="yes"/>
      <point x="251" y="581.0"/>
      <point x="49" y="811.0"/>
      <point x="49" y="1008" type="qcurve" smooth="yes"/>
      <point x="49" y="1239.0"/>
      <point x="309" y="1519.0"/>
      <point x="461" y="1519.0" type="qcurve" smooth="yes"/>
      <point x="665" y="1519.0"/>
      <point x="935" y="1160.0"/>
    </contour>
  </outline>
</glyph>
<glyph name="ogonekcomb.case" format="2">
  <advance width="1024"/>
  <outline>
    <contour>
      <point x="221" y="-295" type="qcurve" smooth="yes"/>
      <point x="221" y="-210"/>
      <point x="342" y="-58"/>
      <point x="415" y="0" type="qcurve" smooth="yes"/>
      <point x="472" y="44" type="line"/>
      <point x="523" y="16" type="line"/>
      <point x="482" y="-23" type="line" smooth="yes"/>
      <point x="388" y="-113"/>
      <point x="326" y="-221"/>
      <point x="326" y="-279" type="qcurve" smooth="yes"/>
      <point x="326" y="-337"/>
      <point x="416" y="-404"/>
      <point x="486" y="-404" type="qcurve" smooth="yes"/>
      <point x="563" y="-404"/>
      <point x="699" y="-347"/>
      <point x="762" y="-299" type="qcurve"/>
      <point x="794" y="-346" type="line"/>
      <point x="749" y="-407"/>
      <point x="578" y="-487"/>
      <point x="474" y="-487" type="qcurve" smooth="yes"/>
      <point x="369" y="-487"/>
      <point x="221" y="-377"/>
    </contour>
  </outline>
</glyph>
<glyph name="one.lc" format="2">
  <advance width="785"/>
  <outline>
    <contour>
      <point x="84" y="0" type="line"/>
      <point x="84" y="39" type="line"/>
      <point x="372" y="74" type="line"/>
      <point x="372" y="544" type="line"/>
      <point x="370" y="990" type="line"/>
      <point x="82" y="1021" type="line"/>
      <point x="82" y="1070" type="line"/>
      <point x="423" y="1093" type="line"/>
      <point x="455" y="1058" type="line"/>
      <point x="449" y="544" type="line"/>
      <point x="449" y="74" type="line"/>
      <point x="771" y="39" type="line"/>
      <point x="771" y="0" type="line"/>
    </contour>
  </outline>
</glyph>
<glyph name="shcha.bgr" format="2">
  <advance width="1926"/>
  <outline>
    <contour>
      <point x="1739" y="0" type="line"/>
      <point x="1635" y="0" type="line"/>
      <point x="1600" y="27" type="line"/>
      <point x="1576" y="147" type="line"/>
      <point x="1512" y="81"/>
      <point x="1307" y="-20"/>
      <point x="1199" y="-20" type="qcurve" smooth="yes"/>
      <point x="1107" y="-20"/>
      <point x="952" y="70"/>
      <point x="922" y="161" type="qcurve"/>
      <point x="844" y="82"/>
      <point x="643" y="-20"/>
      <point x="530" y="-20" type="qcurve" smooth="yes"/>
      <point x="416" y="-20"/>
      <point x="238" y="119"/>
      <point x="238" y="259" type="qcurve" smooth="yes"/>
      <point x="238" y="331"/>
      <point x="240" y="448"/>
      <point x="240" y="473" type="qcurve" smooth="yes"/>
      <point x="238" y="902" type="line"/>
      <point x="56" y="932" type="line"/>
      <point x="56" y="966" type="line"/>
      <point x="244" y="1000" type="line"/>
      <point x="279" y="1000" type="line"/>
      <point x="304" y="964" type="line"/>
      <point x="302" y="473" type="line"/>
      <point x="302" y="268" type="line" smooth="yes"/>
      <point x="302" y="153"/>
      <point x="437" y="49"/>
      <point x="549" y="49" type="qcurve" smooth="yes"/>
      <point x="648" y="49"/>
      <point x="848" y="156"/>
      <point x="909" y="225" type="qcurve"/>
      <point x="908" y="233"/>
      <point x="907" y="250"/>
      <point x="907" y="259" type="qcurve" smooth="yes"/>
      <point x="907" y="331"/>
      <point x="909" y="448"/>
      <point x="909" y="473" type="qcurve" smooth="yes"/>
      <point x="907" y="902" type="line"/>
      <point x="725" y="932" type="line"/>
      <point x="725" y="966" type="line"/>
      <point x="913" y="1000" type="line"/>
      <point x="948" y="1000" type="line"/>
      <point x="973" y="964" type="line"/>
      <point x="971" y="473" type="line"/>
      <point x="971" y="268" type="line" smooth="yes"/>
      <point x="971" y="153"/>
      <point x="1106" y="49"/>
      <point x="1218" y="49" type="qcurve" smooth="yes"/>
      <point x="1315" y="49"/>
      <point x="1515" y="155"/>
      <point x="1576" y="225" type="qcurve"/>
      <point x="1576" y="473" type="line"/>
      <point x="1574" y="902" type="line"/>
      <point x="1370" y="932" type="line"/>
      <point x="1370" y="966" type="line"/>
      <point x="1582" y="1000" type="line"/>
      <point x="1617" y="1000" type="line"/>
      <point x="1642" y="964" type="line"/>
      <point x="1640" y="473" type="line"/>
      <point x="1642" y="55" type="line"/>
      <point x="1810" y="55" type="line"/>
      <point x="1820" y="-318" type="line"/>
      <point x="1780" y="-318" type="line"/>
    </contour>
  </outline>
</glyph>
<glyph name="three.lc" format="2">
  <advance width="944"/>
  <outline>
    <contour>
      <point x="4" y="-297" type="line"/>
      <point x="40" y="-305"/>
      <point x="101" y="-309"/>
      <point x="152" y="-309.0" type="qcurve" smooth="yes"/>
      <point x="424" y="-309.0"/>
      <point x="747" y="-86"/>
      <point x="747" y="103" type="qcurve" smooth="yes"/>
      <point x="747" y="250"/>
      <point x="501" y="425.0"/>
      <point x="308" y="425" type="qcurve" smooth="yes"/>
      <point x="242" y="425" type="line"/>
      <point x="233" y="499.0" type="line"/>
      <point x="297" y="503.0" type="line" smooth="yes"/>
      <point x="515" y="517"/>
      <point x="733" y="677.0"/>
      <point x="733" y="832.0" type="qcurve" smooth="yes"/>
      <point x="733" y="938.0"/>
      <point x="593" y="1043.0"/>
      <point x="462" y="1043.0" type="qcurve" smooth="yes"/>
      <point x="332" y="1043.0"/>
      <point x="128" y="944.0"/>
      <point x="67" y="878.0" type="qcurve"/>
      <point x="28" y="924" type="line"/>
      <point x="97" y="1009"/>
      <point x="331" y="1115"/>
      <point x="477" y="1115" type="qcurve" smooth="yes"/>
      <point x="637" y="1115"/>
      <point x="823" y="964"/>
      <point x="823" y="827" type="qcurve" smooth="yes"/>
      <point x="823" y="673"/>
      <point x="618" y="495"/>
      <point x="454" y="465" type="qcurve"/>
      <point x="454" y="463" type="line"/>
      <point x="617" y="443"/>
      <point x="842" y="277"/>
      <point x="842" y="109" type="qcurve" smooth="yes"/>
      <point x="842" y="-115"/>
      <point x="473" y="-384"/>
      <point x="151" y="-384" type="qcurve" smooth="yes"/>
      <point x="104" y="-384"/>
      <point x="22" y="-377"/>
      <point x="-13" y="-369" type="qcurve"/>
    </contour>
  </outline>
</glyph>
<glyph name="tildecomb.case" format="2">
	<advance width="1024"/>
	<outline>
		<contour>
			<point x="113" y="1747" type="line"/>
			<point x="142" y="1801"/>
			<point x="293" y="1904"/>
			<point x="358" y="1904" type="qcurve" smooth="yes"/>
			<point x="406" y="1904"/>
			<point x="494" y="1862"/>
			<point x="537" y="1834" type="qcurve" smooth="yes"/>
			<point x="573" y="1811"/>
			<point x="667" y="1758"/>
			<point x="714" y="1758" type="qcurve" smooth="yes"/>
			<point x="760" y="1758"/>
			<point x="856" y="1826"/>
			<point x="888" y="1874" type="qcurve"/>
			<point x="939" y="1823" type="line"/>
			<point x="897" y="1741"/>
			<point x="758" y="1657"/>
			<point x="695" y="1657" type="qcurve" smooth="yes"/>
			<point x="643" y="1657"/>
			<point x="535" y="1711"/>
			<point x="503" y="1733" type="qcurve" smooth="yes"/>
			<point x="467" y="1758"/>
			<point x="384" y="1807"/>
			<point x="343" y="1807" type="qcurve" smooth="yes"/>
			<point x="298" y="1807"/>
			<point x="192" y="1740"/>
			<point x="157" y="1703" type="qcurve"/>
		</contour>
	</outline>
</glyph>
<glyph name="two.lc" format="2">
  <advance width="966"/>
  <outline>
    <contour>
      <point x="62" y="0" type="line"/>
      <point x="62" y="80" type="line"/>
      <point x="82" y="167"/>
      <point x="262" y="367"/>
      <point x="417" y="467" type="qcurve" smooth="yes"/>
      <point x="589" y="578"/>
      <point x="756" y="736"/>
      <point x="756.0" y="838" type="qcurve" smooth="yes"/>
      <point x="756" y="937"/>
      <point x="603" y="1040"/>
      <point x="485" y="1040" type="qcurve" smooth="yes"/>
      <point x="377" y="1040"/>
      <point x="164" y="948"/>
      <point x="100" y="878" type="qcurve"/>
      <point x="53" y="939" type="line"/>
      <point x="118" y="1009"/>
      <point x="337" y="1115"/>
      <point x="501" y="1115.0" type="qcurve" smooth="yes"/>
      <point x="638" y="1115"/>
      <point x="855" y="971"/>
      <point x="855" y="833" type="qcurve" smooth="yes"/>
      <point x="855" y="707"/>
      <point x="644" y="524"/>
      <point x="470" y="412" type="qcurve" smooth="yes"/>
      <point x="340" y="328"/>
      <point x="160" y="158"/>
      <point x="145" y="101" type="qcurve"/>
      <point x="154" y="85" type="line"/>
      <point x="894" y="85" type="line"/>
      <point x="894" y="0" type="line"/>
    </contour>
  </outline>
</glyph>
<glyph name="two.tab" format="2">
  <advance width="1000"/>
  <outline>
    <contour>
      <point x="67" y="0" type="line"/>
      <point x="67" y="93" type="line"/>
      <point x="89" y="237"/>
      <point x="281" y="480"/>
      <point x="450" y="626" type="qcurve" smooth="yes"/>
      <point x="623" y="775"/>
      <point x="796" y="992"/>
      <point x="796" y="1143" type="qcurve" smooth="yes"/>
      <point x="796" y="1285"/>
      <point x="633" y="1459"/>
      <point x="488" y="1459" type="qcurve" smooth="yes"/>
      <point x="349" y="1459"/>
      <point x="147" y="1345"/>
      <point x="67" y="1251" type="qcurve"/>
      <point x="27" y="1294" type="line"/>
      <point x="94" y="1387"/>
      <point x="334" y="1520"/>
      <point x="505" y="1520" type="qcurve" smooth="yes"/>
      <point x="681" y="1520"/>
      <point x="890" y="1320"/>
      <point x="888" y="1138" type="qcurve" smooth="yes"/>
      <point x="886" y="967"/>
      <point x="674" y="721"/>
      <point x="507" y="593" type="qcurve" smooth="yes"/>
      <point x="380" y="496"/>
      <point x="157" y="244"/>
      <point x="129" y="97" type="qcurve"/>
      <point x="139" y="86" type="line"/>
      <point x="961" y="86" type="line"/>
      <point x="961" y="0" type="line"/>
    </contour>
  </outline>
</glyph>
<glyph name="ve.bgr" format="2">
  <advance width="1052"/>
  <outline>
    <contour>
      <point x="124" y="396" type="qcurve" smooth="yes"/>
      <point x="124" y="1111" type="line" smooth="yes"/>
      <point x="124" y="1304"/>
      <point x="334.8325358852" y="1539"/>
      <point x="532" y="1539" type="qcurve" smooth="yes"/>
      <point x="713.3731343284" y="1539"/>
      <point x="924" y="1329"/>
      <point x="924" y="1147" type="qcurve" smooth="yes"/>
      <point x="924" y="1037"/>
      <point x="800" y="839"/>
      <point x="650" y="797" type="qcurve"/>
      <point x="650" y="793" type="line"/>
      <point x="811" y="763"/>
      <point x="978" y="574"/>
      <point x="978" y="417" type="qcurve" smooth="yes"/>
      <point x="978" y="198"/>
      <point x="735.5730337079" y="-23"/>
      <point x="543" y="-23" type="qcurve"/>
      <point x="338.8717948718" y="-23"/>
      <point x="124" y="202"/>
    </contour>
    <contour>
      <point x="532" y="1478" type="qcurve" smooth="yes"/>
      <point x="370.7976878613" y="1478"/>
      <point x="196" y="1303"/>
      <point x="196" y="1112" type="qcurve" smooth="yes"/>
      <point x="196" y="818" type="line"/>
      <point x="484" y="818" type="line" smooth="yes"/>
      <point x="655" y="818"/>
      <point x="852" y="990"/>
      <point x="852" y="1146" type="qcurve" smooth="yes"/>
      <point x="852" y="1309"/>
      <point x="692.9696969697" y="1478"/>
    </contour>
    <contour>
      <point x="196" y="396" type="line" smooth="yes"/>
      <point x="196" y="212"/>
      <point x="372" y="38"/>
      <point x="543" y="38" type="qcurve"/>
      <point x="717" y="38"/>
      <point x="906" y="225"/>
      <point x="906" y="416" type="qcurve" smooth="yes"/>
      <point x="906" y="587"/>
      <point x="694" y="763"/>
      <point x="493" y="763" type="qcurve" smooth="yes"/>
      <point x="196" y="763" type="line"/>
    </contour>
  </outline>
</glyph>
<glyph name="ze.bgr" format="2">
  <advance width="932"/>
  <outline>
    <contour>
      <point x="888" y="-58" type="qcurve" smooth="yes"/>
      <point x="888" y="-270"/>
      <point x="662" y="-490"/>
      <point x="483" y="-490" type="qcurve" smooth="yes"/>
      <point x="350" y="-490"/>
      <point x="212" y="-427"/>
      <point x="177" y="-394" type="qcurve"/>
      <point x="133" y="-466" type="line"/>
      <point x="95" y="-466" type="line"/>
      <point x="95" y="-130" type="line"/>
      <point x="138" y="-130" type="line"/>
      <point x="162" y="-221" type="line" smooth="yes"/>
      <point x="190" y="-328"/>
      <point x="326" y="-428"/>
      <point x="480" y="-428" type="qcurve" smooth="yes"/>
      <point x="639" y="-428"/>
      <point x="817" y="-243"/>
      <point x="817" y="-61" type="qcurve" smooth="yes"/>
      <point x="817" y="114"/>
      <point x="644" y="289"/>
      <point x="441" y="289" type="qcurve" smooth="yes"/>
      <point x="312" y="289" type="line"/>
      <point x="312" y="344" type="line"/>
      <point x="438" y="344" type="line" smooth="yes"/>
      <point x="599" y="344"/>
      <point x="762" y="497"/>
      <point x="762" y="663" type="qcurve" smooth="yes"/>
      <point x="762" y="812"/>
      <point x="617" y="960"/>
      <point x="487" y="960" type="qcurve" smooth="yes"/>
      <point x="360" y="960"/>
      <point x="223" y="857"/>
      <point x="196" y="753" type="qcurve" smooth="yes"/>
      <point x="172" y="662" type="line"/>
      <point x="129" y="662" type="line"/>
      <point x="129" y="998" type="line"/>
      <point x="167" y="998" type="line"/>
      <point x="211" y="926" type="line"/>
      <point x="249" y="965"/>
      <point x="392" y="1022"/>
      <point x="496" y="1022" type="qcurve" smooth="yes"/>
      <point x="655" y="1022"/>
      <point x="832" y="836"/>
      <point x="832" y="673" type="qcurve" smooth="yes"/>
      <point x="832" y="517"/>
      <point x="690" y="348"/>
      <point x="580" y="325" type="qcurve"/>
      <point x="580" y="321" type="line"/>
      <point x="715" y="303"/>
      <point x="888" y="108"/>
    </contour>
  </outline>
</glyph>
<glyph name="zero.lc" format="2">
  <advance width="1244"/>
  <outline>
    <contour>
      <point x="104" y="547" type="qcurve" smooth="yes"/>
      <point x="104" y="781"/>
      <point x="393" y="1109"/>
      <point x="629" y="1109" type="qcurve" smooth="yes"/>
      <point x="864" y="1109"/>
      <point x="1140" y="802"/>
      <point x="1140" y="554" type="qcurve" smooth="yes"/>
      <point x="1140" y="321"/>
      <point x="853" y="-15"/>
      <point x="618" y="-15" type="qcurve" smooth="yes"/>
      <point x="382" y="-15"/>
      <point x="104" y="296"/>
    </contour>
    <contour>
      <point x="186.0" y="572" type="qcurve" smooth="yes"/>
      <point x="186.0" y="335"/>
      <point x="427.0" y="56"/>
      <point x="622.0" y="56" type="qcurve" smooth="yes"/>
      <point x="832.0" y="56"/>
      <point x="1061.0" y="334"/>
      <point x="1061.0" y="556" type="qcurve" smooth="yes"/>
      <point x="1061.0" y="759"/>
      <point x="828.0" y="1034.0"/>
      <point x="630.0" y="1034.0" type="qcurve" smooth="yes"/>
      <point x="418.0" y="1034.0"/>
      <point x="186.0" y="783"/>
    </contour>
  </outline>
</glyph>
<glyph name="zero.tab" format="2">
  <advance width="1000"/>
  <outline>
    <contour>
      <point x="51.0" y="746.0" type="qcurve" smooth="yes"/>
      <point x="51.0" y="1093.0"/>
      <point x="297" y="1524.0"/>
      <point x="500" y="1524.0" type="qcurve" smooth="yes"/>
      <point x="700" y="1524.0"/>
      <point x="949" y="1099.0"/>
      <point x="949" y="754.0" type="qcurve" smooth="yes"/>
      <point x="949" y="430.0"/>
      <point x="704" y="-26.0"/>
      <point x="505" y="-26.0" type="qcurve" smooth="yes"/>
      <point x="302" y="-26.0"/>
      <point x="51.0" y="397.0"/>
    </contour>
    <contour>
      <point x="134" y="781.0" type="qcurve" smooth="yes"/>
      <point x="135" y="464.0"/>
      <point x="330" y="51.0"/>
      <point x="494" y="51.0" type="qcurve" smooth="yes"/>
      <point x="672" y="51.0"/>
      <point x="863" y="437.0"/>
      <point x="865" y="754.0" type="qcurve" smooth="yes"/>
      <point x="868" y="1060.0"/>
      <point x="664" y="1447.0"/>
      <point x="496" y="1447.0" type="qcurve" smooth="yes"/>
      <point x="317" y="1447.0"/>
      <point x="133" y="1088.0"/>
    </contour>
  </outline>
</glyph>
